<svg width="475" height="597" viewBox="0 0 475 597" fill="none" xmlns="http://www.w3.org/2000/svg">
<path d="M237.21 0C112.328 0 9.91127 102.416 9.91127 227.298C9.91127 352.18 112.328 454.597 237.21 454.597C362.092 454.597 464.508 352.18 464.508 227.298C464.508 102.416 362.092 0 237.21 0ZM237.21 384.652C149.802 384.652 79.8565 314.706 79.8565 227.298C79.8565 139.89 149.707 69.9452 237.21 69.9452C324.712 69.9452 394.563 139.89 394.563 227.298C392.014 314.706 322.069 384.652 237.21 384.652ZM439.494 434.586L237.21 521.993L34.9254 434.586L0 497.074L237.21 596.942L474.419 497.074L439.494 434.586Z" fill="black"/>
</svg>
