<?xml version="1.0" standalone="no"?>
<!DOCTYPE svg PUBLIC "-//W3C//DTD SVG 20010904//EN"
 "http://www.w3.org/TR/2001/REC-SVG-20010904/DTD/svg10.dtd">
<svg version="1.0" xmlns="http://www.w3.org/2000/svg"
 width="1024.000000pt" height="1024.000000pt" viewBox="0 0 1024.000000 1024.000000"
 preserveAspectRatio="xMidYMid meet">
<metadata>
Created by potrace 1.16, written by Peter Selinger 2001-2019
</metadata>
<g transform="translate(0.000000,1024.000000) scale(0.100000,-0.100000)"
fill="#000000" stroke="none">
<path d="M5315 7680 c-256 -6 -225 4 -423 -139 l-132 -96 137 -8 c76 -4 224
-6 328 -5 182 4 192 5 241 30 47 25 265 195 280 219 4 7 -29 9 -102 7 -60 -2
-208 -5 -329 -8z"/>
<path d="M5995 7656 c-60 -26 -82 -95 -50 -156 19 -37 43 -50 93 -50 48 0 86
28 102 74 27 84 -65 168 -145 132z"/>
<path d="M6445 7528 c-22 -11 -68 -41 -103 -67 l-64 -46 348 -3 347 -2 93 62
c52 35 94 66 94 71 0 4 -152 7 -337 7 -323 -1 -340 -2 -378 -22z"/>
<path d="M3374 7206 c-58 -26 -100 -105 -87 -169 3 -16 25 -49 48 -73 40 -42
44 -44 102 -44 71 0 115 25 144 80 68 126 -71 265 -207 206z"/>
<path d="M6960 7179 c-43 -27 -206 -160 -365 -299 -66 -58 -146 -127 -177
-154 -32 -27 -58 -52 -58 -57 0 -5 149 -9 335 -9 l335 0 0 270 c0 302 3 293
-70 249z"/>
<path d="M4435 7165 c-324 -82 -641 -311 -821 -593 -85 -132 -156 -303 -189
-452 -23 -103 -31 -379 -15 -489 24 -164 98 -355 193 -496 55 -82 172 -197
228 -223 l45 -22 1035 0 c1001 0 1035 -1 1077 -20 89 -40 192 -184 227 -316
22 -85 20 -262 -4 -356 -68 -266 -280 -479 -571 -574 l-85 -28 -615 -7 c-572
-7 -619 -9 -670 -27 -81 -28 -118 -54 -321 -228 -101 -86 -214 -182 -251 -213
-38 -30 -68 -59 -68 -63 0 -4 463 -8 1029 -8 883 0 1040 2 1103 15 243 51 478
178 660 358 147 145 244 286 320 467 79 186 103 326 95 558 -6 193 -31 310
-95 460 -78 181 -209 351 -325 420 l-56 34 -1028 1 -1029 2 -49 26 c-88 45
-183 185 -220 325 -23 86 -21 240 4 338 38 146 151 319 269 412 77 61 239 139
342 166 81 21 110 22 680 27 585 6 596 6 655 29 101 38 157 80 471 359 85 75
154 138 154 140 0 1 -469 3 -1042 2 l-1043 -1 -90 -23z"/>
<path d="M4735 6439 c-264 -65 -453 -242 -501 -469 -26 -124 -4 -243 66 -353
l30 -47 72 73 c121 123 -21 111 1398 117 1148 5 1227 6 1257 23 38 20 66 59
61 84 -8 44 13 43 -1308 40 l-1255 -2 3 82 c3 81 4 82 35 94 25 11 207 15 817
19 l785 5 47 28 c53 31 90 72 129 144 l26 48 215 5 216 5 53 37 c30 21 68 49
84 62 l30 25 -1090 0 c-1048 0 -1093 -1 -1170 -20z"/>
<path d="M2920 5262 c0 -229 1 -241 23 -282 35 -66 70 -80 204 -80 62 0 113 4
113 8 0 5 -12 19 -26 33 -15 13 -40 44 -55 68 -28 43 -29 50 -29 165 l0 121
-87 84 c-49 46 -100 92 -115 103 l-28 19 0 -239z"/>
<path d="M7007 5373 l-38 -4 35 -39 c63 -69 76 -107 76 -215 0 -53 4 -104 9
-114 6 -10 58 -59 116 -111 l106 -92 -3 240 c-3 225 -4 242 -24 268 -41 56
-67 67 -156 70 -46 1 -100 0 -121 -3z"/>
<path d="M5875 4650 c-42 -55 -124 -118 -184 -141 -50 -18 -90 -19 -1261 -19
-1335 0 -1249 4 -1317 -62 -39 -37 -39 -42 -13 -68 20 -20 31 -20 1317 -20
713 0 1298 -1 1300 -3 2 -3 5 -37 6 -77 l2 -73 -35 -16 c-29 -13 -107 -16
-460 -22 -234 -4 -579 -7 -768 -8 -297 -1 -347 -3 -375 -17 -61 -32 -104 -73
-136 -134 l-32 -60 -244 0 -244 0 -68 -46 c-74 -50 -110 -81 -102 -88 2 -3
497 -6 1099 -6 1012 -2 1100 -1 1165 15 203 51 363 170 440 329 73 149 84 296
32 423 -24 59 -72 134 -86 133 -3 -1 -19 -19 -36 -40z"/>
<path d="M3170 3310 l0 -270 43 0 c60 0 85 19 489 368 103 90 188 165 188 167
0 3 -162 5 -360 5 l-360 0 0 -270z"/>
<path d="M6722 3314 c-49 -25 -75 -69 -80 -133 -2 -43 2 -63 17 -89 41 -65
121 -89 194 -58 45 19 74 54 88 107 11 43 10 50 -12 95 -13 26 -36 57 -51 67
-36 27 -114 32 -156 11z"/>
<path d="M3073 2771 l-102 -68 202 -6 c307 -10 457 -8 500 7 37 14 114 63 172
111 l30 24 -350 0 -350 0 -102 -68z"/>
<path d="M4130 2813 c-90 -29 -118 -111 -61 -175 25 -28 36 -33 75 -33 119 0
150 155 41 201 -19 8 -36 14 -37 13 -2 0 -10 -3 -18 -6z"/>
<path d="M4735 2786 c-22 -7 -56 -21 -75 -31 -36 -19 -166 -117 -235 -179
l-40 -35 360 -1 c335 0 363 1 398 19 41 21 296 222 297 234 0 13 -661 7 -705
-7z"/>
</g>
</svg>
