<svg width="619" height="138" viewBox="0 0 619 138" fill="none" xmlns="http://www.w3.org/2000/svg">
<path d="M0 16C0 7.16344 7.16344 0 16 0H603C611.837 0 619 7.16344 619 16V122C619 130.837 611.837 138 603 138H16C7.16345 138 0 130.837 0 122V16Z" fill="white"/>
<path d="M66.04 35.36V32.552L72.712 29.456L66.04 26.168V23.336L76.36 28.664V30.344L66.04 35.36ZM99.3813 38.24C98.5173 38.24 97.6613 38.16 96.8133 38C95.9813 37.824 95.1973 37.56 94.4613 37.208V34.04C95.3573 34.488 96.2213 34.824 97.0533 35.048C97.8853 35.256 98.6933 35.36 99.4773 35.36C100.037 35.36 100.525 35.304 100.941 35.192C101.373 35.064 101.709 34.864 101.949 34.592C102.189 34.304 102.309 33.912 102.309 33.416C102.309 32.904 102.165 32.504 101.877 32.216C101.605 31.928 101.205 31.656 100.677 31.4C100.149 31.128 99.5173 30.8 98.7812 30.416C98.0453 30.016 97.3733 29.584 96.7653 29.12C96.1573 28.656 95.6773 28.112 95.3253 27.488C94.9733 26.848 94.7973 26.08 94.7973 25.184C94.7973 24.16 95.0293 23.312 95.4933 22.64C95.9733 21.968 96.6293 21.464 97.4613 21.128C98.3093 20.792 99.2933 20.624 100.413 20.624C101.085 20.624 101.885 20.704 102.813 20.864C103.741 21.008 104.653 21.296 105.549 21.728L104.445 24.44C103.661 24.104 102.949 23.864 102.309 23.72C101.669 23.576 101.101 23.504 100.605 23.504C100.093 23.504 99.6693 23.576 99.3333 23.72C98.9973 23.864 98.7493 24.072 98.5893 24.344C98.4293 24.616 98.3493 24.952 98.3493 25.352C98.3493 25.816 98.4613 26.192 98.6853 26.48C98.9093 26.768 99.2453 27.032 99.6933 27.272C100.141 27.496 100.709 27.784 101.397 28.136C102.341 28.6 103.141 29.056 103.797 29.504C104.469 29.936 104.981 30.44 105.333 31.016C105.685 31.592 105.861 32.328 105.861 33.224C105.861 34.056 105.701 34.784 105.381 35.408C105.077 36.032 104.637 36.56 104.061 36.992C103.501 37.408 102.821 37.72 102.021 37.928C101.237 38.136 100.357 38.24 99.3813 38.24ZM115.308 38.24C113.836 38.24 112.62 37.992 111.66 37.496C110.716 37 110.012 36.264 109.548 35.288C109.084 34.296 108.852 33.072 108.852 31.616C108.852 30.096 109.092 28.824 109.572 27.8C110.068 26.76 110.804 25.976 111.78 25.448C112.756 24.92 113.972 24.656 115.428 24.656C116.084 24.656 116.78 24.72 117.516 24.848C118.252 24.96 118.964 25.168 119.652 25.472L118.644 28.232C118.004 27.976 117.42 27.808 116.892 27.728C116.364 27.648 115.94 27.608 115.62 27.608C114.9 27.608 114.3 27.752 113.82 28.04C113.34 28.328 112.98 28.76 112.74 29.336C112.5 29.912 112.38 30.632 112.38 31.496C112.38 32.376 112.508 33.096 112.764 33.656C113.02 34.216 113.388 34.632 113.868 34.904C114.364 35.16 114.964 35.288 115.668 35.288C116.164 35.288 116.708 35.216 117.3 35.072C117.908 34.912 118.556 34.624 119.244 34.208V37.328C118.556 37.68 117.9 37.92 117.276 38.048C116.652 38.176 115.996 38.24 115.308 38.24ZM122.547 38V35.84L125.955 35.12V27.776L123.195 27.368V24.896H128.595L129.099 27.104H129.267C129.683 26.368 130.211 25.776 130.851 25.328C131.491 24.88 132.299 24.656 133.275 24.656C133.547 24.656 133.891 24.68 134.307 24.728C134.723 24.776 135.139 24.888 135.555 25.064L134.619 28.304C134.395 28.224 134.115 28.152 133.779 28.088C133.443 28.024 133.091 27.992 132.723 27.992C131.987 27.992 131.371 28.16 130.875 28.496C130.395 28.816 130.035 29.256 129.795 29.816C129.555 30.376 129.435 31.008 129.435 31.712V35.12L132.867 35.84V38H122.547ZM141.305 38.24C139.929 38.24 138.889 37.88 138.185 37.16C137.497 36.424 137.153 35.44 137.153 34.208C137.153 33.232 137.361 32.432 137.777 31.808C138.193 31.184 138.809 30.72 139.625 30.416C140.441 30.112 141.433 29.944 142.601 29.912L145.481 29.84V29.264C145.481 28.656 145.265 28.2 144.833 27.896C144.401 27.592 143.745 27.44 142.865 27.44C142.305 27.44 141.705 27.504 141.065 27.632C140.441 27.76 139.777 27.96 139.073 28.232L137.945 25.808C138.697 25.424 139.489 25.136 140.321 24.944C141.169 24.752 142.057 24.656 142.985 24.656C144.841 24.656 146.273 25.04 147.281 25.808C148.289 26.56 148.793 27.712 148.793 29.264V38H146.153L145.601 36.344H145.505C145.105 36.808 144.681 37.184 144.233 37.472C143.785 37.744 143.313 37.936 142.817 38.048C142.337 38.176 141.833 38.24 141.305 38.24ZM142.529 35.504C143.073 35.504 143.569 35.408 144.017 35.216C144.465 35.008 144.817 34.72 145.073 34.352C145.345 33.968 145.481 33.52 145.481 33.008V31.928L143.489 31.976C142.849 31.992 142.305 32.072 141.857 32.216C141.425 32.36 141.097 32.568 140.873 32.84C140.649 33.112 140.537 33.464 140.537 33.896C140.537 34.472 140.729 34.888 141.113 35.144C141.497 35.384 141.969 35.504 142.529 35.504ZM151.664 43.76V24.896H154.304L154.904 26.6H155.072C155.36 26.168 155.704 25.808 156.104 25.52C156.504 25.232 156.944 25.016 157.424 24.872C157.904 24.728 158.408 24.656 158.936 24.656C159.784 24.656 160.512 24.832 161.12 25.184C161.728 25.52 162.224 26 162.608 26.624C163.008 27.248 163.304 27.968 163.496 28.784C163.688 29.6 163.784 30.48 163.784 31.424C163.784 32.848 163.576 34.072 163.16 35.096C162.76 36.12 162.192 36.904 161.456 37.448C160.72 37.976 159.84 38.24 158.816 38.24C158.336 38.24 157.864 38.176 157.4 38.048C156.936 37.92 156.504 37.736 156.104 37.496C155.72 37.24 155.376 36.928 155.072 36.56H154.904C154.984 37.104 155.032 37.536 155.048 37.856C155.064 38.176 155.072 38.376 155.072 38.456V43.76H151.664ZM157.736 35.36C158.584 35.36 159.2 35.048 159.584 34.424C159.984 33.784 160.184 32.768 160.184 31.376C160.184 30.128 159.984 29.176 159.584 28.52C159.2 27.864 158.576 27.536 157.712 27.536C156.88 27.536 156.232 27.84 155.768 28.448C155.304 29.056 155.072 29.912 155.072 31.016V31.4C155.072 32.76 155.304 33.76 155.768 34.4C156.232 35.04 156.888 35.36 157.736 35.36ZM181.045 38V20.864H186.397C188.285 20.864 189.725 21.2 190.717 21.872C191.709 22.528 192.205 23.592 192.205 25.064C192.205 26.104 191.973 26.96 191.509 27.632C191.045 28.304 190.421 28.728 189.637 28.904V29.024C190.229 29.168 190.741 29.4 191.173 29.72C191.605 30.04 191.941 30.464 192.181 30.992C192.437 31.52 192.565 32.184 192.565 32.984C192.565 34.024 192.341 34.92 191.893 35.672C191.461 36.424 190.829 37 189.997 37.4C189.165 37.8 188.157 38 186.973 38H181.045ZM186.637 35.144C187.501 35.144 188.101 34.936 188.437 34.52C188.773 34.104 188.941 33.528 188.941 32.792C188.941 32.296 188.869 31.888 188.725 31.568C188.581 31.232 188.333 30.984 187.981 30.824C187.629 30.648 187.141 30.56 186.517 30.56H184.285V35.144H186.637ZM186.373 27.608C187.221 27.608 187.813 27.456 188.149 27.152C188.501 26.832 188.677 26.336 188.677 25.664C188.677 24.976 188.493 24.48 188.125 24.176C187.757 23.872 187.133 23.72 186.253 23.72H184.285V27.608H186.373ZM199.132 38.24C197.74 38.24 196.652 37.832 195.868 37.016C195.1 36.184 194.716 34.992 194.716 33.44V24.896H198.196V32.552C198.196 33.432 198.348 34.12 198.652 34.616C198.956 35.112 199.508 35.36 200.308 35.36C201.076 35.36 201.66 35.184 202.06 34.832C202.46 34.48 202.732 33.984 202.876 33.344C203.036 32.688 203.116 31.928 203.116 31.064V24.896H206.596V38H203.956L203.38 36.32H203.188C202.932 36.72 202.596 37.064 202.18 37.352C201.78 37.64 201.316 37.856 200.788 38C200.276 38.16 199.724 38.24 199.132 38.24ZM214.434 38.24C213.65 38.24 212.874 38.184 212.106 38.072C211.354 37.96 210.594 37.76 209.826 37.472V34.232C210.514 34.536 211.29 34.8 212.154 35.024C213.018 35.232 213.914 35.336 214.842 35.336C215.45 35.336 215.93 35.264 216.282 35.12C216.634 34.96 216.81 34.704 216.81 34.352C216.81 34.048 216.69 33.808 216.45 33.632C216.21 33.44 215.858 33.256 215.394 33.08C214.946 32.888 214.378 32.664 213.69 32.408C212.97 32.12 212.322 31.824 211.746 31.52C211.186 31.2 210.738 30.808 210.402 30.344C210.082 29.864 209.922 29.248 209.922 28.496C209.922 27.6 210.146 26.872 210.594 26.312C211.058 25.736 211.69 25.32 212.49 25.064C213.29 24.792 214.218 24.656 215.274 24.656C216.122 24.656 216.978 24.744 217.842 24.92C218.706 25.08 219.546 25.336 220.362 25.688L219.282 28.352C218.546 28.08 217.842 27.872 217.17 27.728C216.514 27.584 215.842 27.512 215.154 27.512C214.626 27.512 214.21 27.576 213.906 27.704C213.618 27.832 213.474 28.056 213.474 28.376C213.474 28.664 213.586 28.904 213.81 29.096C214.034 29.272 214.362 29.44 214.794 29.6C215.226 29.744 215.746 29.928 216.354 30.152C217.074 30.408 217.738 30.696 218.346 31.016C218.954 31.336 219.442 31.76 219.81 32.288C220.194 32.8 220.386 33.496 220.386 34.376C220.386 35.272 220.162 36.008 219.714 36.584C219.266 37.144 218.602 37.56 217.722 37.832C216.842 38.104 215.746 38.24 214.434 38.24ZM231.681 38.24C230.561 38.24 229.617 38.08 228.849 37.76C228.097 37.424 227.529 36.912 227.145 36.224C226.761 35.52 226.569 34.608 226.569 33.488V27.776H223.569V25.616L226.833 24.896L227.409 21.632H230.049V24.896H234.969V27.776H230.049V33.128C230.049 33.752 230.153 34.224 230.361 34.544C230.569 34.848 230.849 35.056 231.201 35.168C231.553 35.28 231.937 35.336 232.353 35.336C232.737 35.336 233.129 35.304 233.529 35.24C233.929 35.176 234.449 35.088 235.089 34.976V37.712C234.497 37.904 233.913 38.04 233.337 38.12C232.777 38.2 232.225 38.24 231.681 38.24ZM245.112 38.24C243.576 38.24 242.272 37.976 241.2 37.448C240.128 36.92 239.304 36.144 238.728 35.12C238.168 34.096 237.888 32.848 237.888 31.376C237.888 30.016 238.128 28.832 238.608 27.824C239.088 26.816 239.792 26.04 240.72 25.496C241.648 24.936 242.768 24.656 244.08 24.656C245.312 24.656 246.36 24.904 247.224 25.4C248.088 25.88 248.744 26.576 249.192 27.488C249.656 28.384 249.888 29.464 249.888 30.728V32.456H241.272C241.304 33.096 241.496 33.64 241.848 34.088C242.216 34.52 242.704 34.848 243.312 35.072C243.92 35.28 244.584 35.384 245.304 35.384C245.928 35.384 246.584 35.312 247.272 35.168C247.976 35.008 248.72 34.784 249.504 34.496V37.304C248.8 37.656 248.072 37.896 247.32 38.024C246.584 38.168 245.848 38.24 245.112 38.24ZM246.768 30.08C246.768 29.504 246.648 29.016 246.408 28.616C246.184 28.2 245.88 27.88 245.496 27.656C245.112 27.432 244.664 27.32 244.152 27.32C243.416 27.32 242.784 27.56 242.256 28.04C241.728 28.504 241.424 29.184 241.344 30.08H246.768ZM252.062 38V35.84L255.47 35.12V27.776L252.71 27.368V24.896H258.11L258.614 27.104H258.782C259.198 26.368 259.726 25.776 260.366 25.328C261.006 24.88 261.814 24.656 262.79 24.656C263.062 24.656 263.406 24.68 263.822 24.728C264.238 24.776 264.654 24.888 265.07 25.064L264.134 28.304C263.91 28.224 263.63 28.152 263.294 28.088C262.958 28.024 262.606 27.992 262.238 27.992C261.502 27.992 260.886 28.16 260.39 28.496C259.91 28.816 259.55 29.256 259.31 29.816C259.07 30.376 258.95 31.008 258.95 31.712V35.12L262.382 35.84V38H252.062ZM271.997 38.24C271.213 38.24 270.437 38.184 269.669 38.072C268.917 37.96 268.157 37.76 267.389 37.472V34.232C268.077 34.536 268.853 34.8 269.717 35.024C270.581 35.232 271.477 35.336 272.405 35.336C273.013 35.336 273.493 35.264 273.845 35.12C274.197 34.96 274.373 34.704 274.373 34.352C274.373 34.048 274.253 33.808 274.013 33.632C273.773 33.44 273.421 33.256 272.957 33.08C272.509 32.888 271.941 32.664 271.253 32.408C270.533 32.12 269.885 31.824 269.309 31.52C268.749 31.2 268.301 30.808 267.965 30.344C267.645 29.864 267.485 29.248 267.485 28.496C267.485 27.6 267.709 26.872 268.157 26.312C268.621 25.736 269.253 25.32 270.053 25.064C270.853 24.792 271.781 24.656 272.837 24.656C273.685 24.656 274.541 24.744 275.405 24.92C276.269 25.08 277.109 25.336 277.925 25.688L276.845 28.352C276.109 28.08 275.405 27.872 274.733 27.728C274.077 27.584 273.405 27.512 272.717 27.512C272.189 27.512 271.773 27.576 271.469 27.704C271.181 27.832 271.037 28.056 271.037 28.376C271.037 28.664 271.149 28.904 271.373 29.096C271.597 29.272 271.925 29.44 272.357 29.6C272.789 29.744 273.309 29.928 273.917 30.152C274.637 30.408 275.301 30.696 275.909 31.016C276.517 31.336 277.005 31.76 277.373 32.288C277.757 32.8 277.949 33.496 277.949 34.376C277.949 35.272 277.725 36.008 277.277 36.584C276.829 37.144 276.165 37.56 275.285 37.832C274.405 38.104 273.309 38.24 271.997 38.24Z" fill="black"/>
<path d="M0 16C0 7.16344 7.16344 0 16 0H50V138H16C7.16344 138 0 130.837 0 122V16Z" fill="#0066B3"/>
<path d="M619 122C619 130.837 611.837 138 603 138H569V0H603C611.837 0 619 7.16345 619 16V122Z" fill="#0066B3"/>
<path d="M148 99C148 94.5817 151.582 91 156 91H474C478.418 91 482 94.5817 482 99V115C482 119.418 478.418 123 474 123H156C151.582 123 148 119.418 148 115V99Z" fill="#404040"/>
<path d="M173.28 112V100.576H176.336C177.243 100.576 178 100.715 178.608 100.992C179.227 101.259 179.696 101.648 180.016 102.16C180.336 102.672 180.496 103.291 180.496 104.016C180.496 104.528 180.416 104.987 180.256 105.392C180.096 105.797 179.872 106.149 179.584 106.448C179.296 106.736 178.955 106.976 178.56 107.168L181.36 112H178.896L176.512 107.696H175.6V112H173.28ZM176.288 105.728C176.693 105.728 177.035 105.669 177.312 105.552C177.589 105.424 177.797 105.237 177.936 104.992C178.085 104.747 178.16 104.437 178.16 104.064C178.16 103.499 177.995 103.104 177.664 102.88C177.344 102.656 176.869 102.544 176.24 102.544H175.6V105.728H176.288ZM187.21 112.16C186.186 112.16 185.316 111.984 184.602 111.632C183.887 111.28 183.338 110.763 182.954 110.08C182.58 109.397 182.394 108.565 182.394 107.584C182.394 106.677 182.554 105.888 182.874 105.216C183.194 104.544 183.663 104.027 184.282 103.664C184.9 103.291 185.647 103.104 186.522 103.104C187.343 103.104 188.042 103.269 188.618 103.6C189.194 103.92 189.631 104.384 189.93 104.992C190.239 105.589 190.394 106.309 190.394 107.152V108.304H184.65C184.671 108.731 184.799 109.093 185.034 109.392C185.279 109.68 185.604 109.899 186.01 110.048C186.415 110.187 186.858 110.256 187.338 110.256C187.754 110.256 188.191 110.208 188.65 110.112C189.119 110.005 189.615 109.856 190.138 109.664V111.536C189.668 111.771 189.183 111.931 188.682 112.016C188.191 112.112 187.7 112.16 187.21 112.16ZM188.314 106.72C188.314 106.336 188.234 106.011 188.074 105.744C187.924 105.467 187.722 105.253 187.466 105.104C187.21 104.955 186.911 104.88 186.57 104.88C186.079 104.88 185.658 105.04 185.306 105.36C184.954 105.669 184.751 106.123 184.698 106.72H188.314ZM194.756 112.16C193.838 112.16 193.145 111.92 192.676 111.44C192.217 110.949 191.988 110.293 191.988 109.472C191.988 108.821 192.126 108.288 192.404 107.872C192.681 107.456 193.092 107.147 193.636 106.944C194.18 106.741 194.841 106.629 195.62 106.608L197.54 106.56V106.176C197.54 105.771 197.396 105.467 197.108 105.264C196.82 105.061 196.382 104.96 195.796 104.96C195.422 104.96 195.022 105.003 194.596 105.088C194.18 105.173 193.737 105.307 193.268 105.488L192.516 103.872C193.017 103.616 193.545 103.424 194.1 103.296C194.665 103.168 195.257 103.104 195.876 103.104C197.113 103.104 198.068 103.36 198.74 103.872C199.412 104.373 199.748 105.141 199.748 106.176V112H197.988L197.62 110.896H197.556C197.289 111.205 197.006 111.456 196.708 111.648C196.409 111.829 196.094 111.957 195.764 112.032C195.444 112.117 195.108 112.16 194.756 112.16ZM195.572 110.336C195.934 110.336 196.265 110.272 196.564 110.144C196.862 110.005 197.097 109.813 197.268 109.568C197.449 109.312 197.54 109.013 197.54 108.672V107.952L196.212 107.984C195.785 107.995 195.422 108.048 195.124 108.144C194.836 108.24 194.617 108.379 194.468 108.56C194.318 108.741 194.244 108.976 194.244 109.264C194.244 109.648 194.372 109.925 194.628 110.096C194.884 110.256 195.198 110.336 195.572 110.336ZM206.205 112.16C205.224 112.16 204.413 111.995 203.773 111.664C203.144 111.333 202.675 110.843 202.365 110.192C202.056 109.531 201.901 108.715 201.901 107.744C201.901 106.731 202.061 105.883 202.381 105.2C202.712 104.507 203.203 103.984 203.853 103.632C204.504 103.28 205.315 103.104 206.285 103.104C206.723 103.104 207.187 103.147 207.677 103.232C208.168 103.307 208.643 103.445 209.101 103.648L208.429 105.488C208.003 105.317 207.613 105.205 207.261 105.152C206.909 105.099 206.627 105.072 206.413 105.072C205.933 105.072 205.533 105.168 205.213 105.36C204.893 105.552 204.653 105.84 204.493 106.224C204.333 106.608 204.253 107.088 204.253 107.664C204.253 108.251 204.339 108.731 204.509 109.104C204.68 109.477 204.925 109.755 205.245 109.936C205.576 110.107 205.976 110.192 206.445 110.192C206.776 110.192 207.139 110.144 207.533 110.048C207.939 109.941 208.371 109.749 208.829 109.472V111.552C208.371 111.787 207.933 111.947 207.517 112.032C207.101 112.117 206.664 112.16 206.205 112.16ZM216.631 112.16C215.884 112.16 215.255 112.053 214.743 111.84C214.242 111.616 213.863 111.275 213.607 110.816C213.351 110.347 213.223 109.739 213.223 108.992V105.184H211.223V103.744L213.399 103.264L213.783 101.088H215.543V103.264H218.823V105.184H215.543V108.752C215.543 109.168 215.612 109.483 215.751 109.696C215.89 109.899 216.076 110.037 216.311 110.112C216.546 110.187 216.802 110.224 217.079 110.224C217.335 110.224 217.596 110.203 217.863 110.16C218.13 110.117 218.476 110.059 218.903 109.984V111.808C218.508 111.936 218.119 112.027 217.735 112.08C217.362 112.133 216.994 112.16 216.631 112.16Z" fill="white"/>
<path d="M412.28 113V101.576H419.48V103.576H414.52V106.552H419.24V108.552H414.52V113H412.28ZM421.554 113V111.56L424.434 111.08V102.76L422.114 102.28V100.84H426.754V111.08L429.394 111.56V113H421.554ZM433.756 113.16C432.838 113.16 432.145 112.92 431.676 112.44C431.217 111.949 430.988 111.293 430.988 110.472C430.988 109.821 431.126 109.288 431.404 108.872C431.681 108.456 432.092 108.147 432.636 107.944C433.18 107.741 433.841 107.629 434.62 107.608L436.54 107.56V107.176C436.54 106.771 436.396 106.467 436.108 106.264C435.82 106.061 435.382 105.96 434.796 105.96C434.422 105.96 434.022 106.003 433.596 106.088C433.18 106.173 432.737 106.307 432.268 106.488L431.516 104.872C432.017 104.616 432.545 104.424 433.1 104.296C433.665 104.168 434.257 104.104 434.876 104.104C436.113 104.104 437.068 104.36 437.74 104.872C438.412 105.373 438.748 106.141 438.748 107.176V113H436.988L436.62 111.896H436.556C436.289 112.205 436.006 112.456 435.708 112.648C435.409 112.829 435.094 112.957 434.764 113.032C434.444 113.117 434.108 113.16 433.756 113.16ZM434.572 111.336C434.934 111.336 435.265 111.272 435.564 111.144C435.862 111.005 436.097 110.813 436.268 110.568C436.449 110.312 436.54 110.013 436.54 109.672V108.952L435.212 108.984C434.785 108.995 434.422 109.048 434.124 109.144C433.836 109.24 433.617 109.379 433.468 109.56C433.318 109.741 433.244 109.976 433.244 110.264C433.244 110.648 433.372 110.925 433.628 111.096C433.884 111.256 434.198 111.336 434.572 111.336ZM444.133 113.16C443.611 113.16 443.093 113.123 442.581 113.048C442.08 112.973 441.573 112.84 441.061 112.648V110.488C441.52 110.691 442.037 110.867 442.613 111.016C443.189 111.155 443.787 111.224 444.405 111.224C444.811 111.224 445.131 111.176 445.365 111.08C445.6 110.973 445.717 110.803 445.717 110.568C445.717 110.365 445.637 110.205 445.477 110.088C445.317 109.96 445.083 109.837 444.773 109.72C444.475 109.592 444.096 109.443 443.637 109.272C443.157 109.08 442.725 108.883 442.341 108.68C441.968 108.467 441.669 108.205 441.445 107.896C441.232 107.576 441.125 107.165 441.125 106.664C441.125 106.067 441.275 105.581 441.573 105.208C441.883 104.824 442.304 104.547 442.837 104.376C443.371 104.195 443.989 104.104 444.693 104.104C445.259 104.104 445.829 104.163 446.405 104.28C446.981 104.387 447.541 104.557 448.085 104.792L447.365 106.568C446.875 106.387 446.405 106.248 445.957 106.152C445.52 106.056 445.072 106.008 444.613 106.008C444.261 106.008 443.984 106.051 443.781 106.136C443.589 106.221 443.493 106.371 443.493 106.584C443.493 106.776 443.568 106.936 443.717 107.064C443.867 107.181 444.085 107.293 444.373 107.4C444.661 107.496 445.008 107.619 445.413 107.768C445.893 107.939 446.336 108.131 446.741 108.344C447.147 108.557 447.472 108.84 447.717 109.192C447.973 109.533 448.101 109.997 448.101 110.584C448.101 111.181 447.952 111.672 447.653 112.056C447.355 112.429 446.912 112.707 446.325 112.888C445.739 113.069 445.008 113.16 444.133 113.16ZM450.335 113V100.84H452.655V106.456C452.655 106.669 452.65 106.877 452.639 107.08C452.628 107.272 452.612 107.464 452.591 107.656C452.58 107.848 452.559 108.056 452.527 108.28H452.559C452.708 108.056 452.874 107.827 453.055 107.592C453.236 107.357 453.423 107.123 453.615 106.888L455.839 104.264H458.527L455.327 107.896L458.735 113H456.239L453.887 109.368L452.655 110.312V113H450.335Z" fill="white"/>
<path d="M305.616 113.16C304.517 113.16 303.611 112.931 302.896 112.472C302.192 112.003 301.664 111.347 301.312 110.504C300.971 109.651 300.8 108.659 300.8 107.528C300.8 106.579 300.917 105.731 301.152 104.984C301.387 104.227 301.728 103.581 302.176 103.048C302.635 102.515 303.2 102.109 303.872 101.832C304.555 101.555 305.333 101.416 306.208 101.416C306.763 101.416 307.248 101.475 307.664 101.592C308.091 101.699 308.523 101.859 308.96 102.072L308.192 103.976C307.797 103.773 307.429 103.635 307.088 103.56C306.757 103.485 306.437 103.448 306.128 103.448C305.573 103.448 305.104 103.544 304.72 103.736C304.336 103.917 304.027 104.184 303.792 104.536C303.568 104.888 303.403 105.309 303.296 105.8C303.2 106.291 303.152 106.835 303.152 107.432C303.152 108.264 303.248 108.957 303.44 109.512C303.643 110.056 303.952 110.461 304.368 110.728C304.784 110.995 305.328 111.128 306 111.128C306.373 111.128 306.752 111.08 307.136 110.984C307.531 110.888 307.989 110.723 308.512 110.488V112.568C308.053 112.771 307.573 112.92 307.072 113.016C306.581 113.112 306.096 113.16 305.616 113.16ZM313.994 113.16C313.418 113.16 312.847 113.107 312.282 113C311.727 112.883 311.204 112.707 310.714 112.472V110.36C311.311 110.659 311.887 110.883 312.442 111.032C312.996 111.171 313.535 111.24 314.058 111.24C314.431 111.24 314.756 111.203 315.034 111.128C315.322 111.043 315.546 110.909 315.706 110.728C315.866 110.536 315.946 110.275 315.946 109.944C315.946 109.603 315.85 109.336 315.658 109.144C315.476 108.952 315.21 108.771 314.858 108.6C314.506 108.419 314.084 108.2 313.594 107.944C313.103 107.677 312.655 107.389 312.25 107.08C311.844 106.771 311.524 106.408 311.29 105.992C311.055 105.565 310.938 105.053 310.938 104.456C310.938 103.773 311.092 103.208 311.402 102.76C311.722 102.312 312.159 101.976 312.714 101.752C313.279 101.528 313.935 101.416 314.682 101.416C315.13 101.416 315.663 101.469 316.282 101.576C316.9 101.672 317.508 101.864 318.106 102.152L317.37 103.96C316.847 103.736 316.372 103.576 315.946 103.48C315.519 103.384 315.14 103.336 314.81 103.336C314.468 103.336 314.186 103.384 313.962 103.48C313.738 103.576 313.572 103.715 313.466 103.896C313.359 104.077 313.306 104.301 313.306 104.568C313.306 104.877 313.38 105.128 313.53 105.32C313.679 105.512 313.903 105.688 314.202 105.848C314.5 105.997 314.879 106.189 315.338 106.424C315.967 106.733 316.5 107.037 316.938 107.336C317.386 107.624 317.727 107.96 317.962 108.344C318.196 108.728 318.314 109.219 318.314 109.816C318.314 110.371 318.207 110.856 317.994 111.272C317.791 111.688 317.498 112.04 317.114 112.328C316.74 112.605 316.287 112.813 315.754 112.952C315.231 113.091 314.644 113.16 313.994 113.16ZM323.588 113.16C323.012 113.16 322.441 113.107 321.876 113C321.321 112.883 320.798 112.707 320.308 112.472V110.36C320.905 110.659 321.481 110.883 322.036 111.032C322.59 111.171 323.129 111.24 323.652 111.24C324.025 111.24 324.35 111.203 324.628 111.128C324.916 111.043 325.14 110.909 325.3 110.728C325.46 110.536 325.54 110.275 325.54 109.944C325.54 109.603 325.444 109.336 325.252 109.144C325.07 108.952 324.804 108.771 324.452 108.6C324.1 108.419 323.678 108.2 323.188 107.944C322.697 107.677 322.249 107.389 321.844 107.08C321.438 106.771 321.118 106.408 320.884 105.992C320.649 105.565 320.532 105.053 320.532 104.456C320.532 103.773 320.686 103.208 320.996 102.76C321.316 102.312 321.753 101.976 322.308 101.752C322.873 101.528 323.529 101.416 324.276 101.416C324.724 101.416 325.257 101.469 325.876 101.576C326.494 101.672 327.102 101.864 327.7 102.152L326.964 103.96C326.441 103.736 325.966 103.576 325.54 103.48C325.113 103.384 324.734 103.336 324.404 103.336C324.062 103.336 323.78 103.384 323.556 103.48C323.332 103.576 323.166 103.715 323.06 103.896C322.953 104.077 322.9 104.301 322.9 104.568C322.9 104.877 322.974 105.128 323.124 105.32C323.273 105.512 323.497 105.688 323.796 105.848C324.094 105.997 324.473 106.189 324.932 106.424C325.561 106.733 326.094 107.037 326.532 107.336C326.98 107.624 327.321 107.96 327.556 108.344C327.79 108.728 327.908 109.219 327.908 109.816C327.908 110.371 327.801 110.856 327.588 111.272C327.385 111.688 327.092 112.04 326.708 112.328C326.334 112.605 325.881 112.813 325.348 112.952C324.825 113.091 324.238 113.16 323.588 113.16Z" fill="white"/>
<circle cx="545" cy="28" r="10" fill="#808080"/>
<circle cx="511" cy="28" r="10" fill="black"/>
<circle cx="477" cy="28" r="10" fill="#0066B3"/>
</svg>
