<svg width="619" height="138" viewBox="0 0 619 138" fill="none" xmlns="http://www.w3.org/2000/svg">
<path d="M0 16C0 7.16344 7.16344 0 16 0H603C611.837 0 619 7.16344 619 16V122C619 130.837 611.837 138 603 138H16C7.16345 138 0 130.837 0 122V16Z" fill="white"/>
<path d="M66.04 35.36V32.552L72.712 29.456L66.04 26.168V23.336L76.36 28.664V30.344L66.04 35.36ZM99.3813 38.24C98.5173 38.24 97.6613 38.16 96.8133 38C95.9813 37.824 95.1973 37.56 94.4613 37.208V34.04C95.3573 34.488 96.2213 34.824 97.0533 35.048C97.8853 35.256 98.6933 35.36 99.4773 35.36C100.037 35.36 100.525 35.304 100.941 35.192C101.373 35.064 101.709 34.864 101.949 34.592C102.189 34.304 102.309 33.912 102.309 33.416C102.309 32.904 102.165 32.504 101.877 32.216C101.605 31.928 101.205 31.656 100.677 31.4C100.149 31.128 99.5173 30.8 98.7812 30.416C98.0453 30.016 97.3733 29.584 96.7653 29.12C96.1573 28.656 95.6773 28.112 95.3253 27.488C94.9733 26.848 94.7973 26.08 94.7973 25.184C94.7973 24.16 95.0293 23.312 95.4933 22.64C95.9733 21.968 96.6293 21.464 97.4613 21.128C98.3093 20.792 99.2933 20.624 100.413 20.624C101.085 20.624 101.885 20.704 102.813 20.864C103.741 21.008 104.653 21.296 105.549 21.728L104.445 24.44C103.661 24.104 102.949 23.864 102.309 23.72C101.669 23.576 101.101 23.504 100.605 23.504C100.093 23.504 99.6693 23.576 99.3333 23.72C98.9973 23.864 98.7493 24.072 98.5893 24.344C98.4293 24.616 98.3493 24.952 98.3493 25.352C98.3493 25.816 98.4613 26.192 98.6853 26.48C98.9093 26.768 99.2453 27.032 99.6933 27.272C100.141 27.496 100.709 27.784 101.397 28.136C102.341 28.6 103.141 29.056 103.797 29.504C104.469 29.936 104.981 30.44 105.333 31.016C105.685 31.592 105.861 32.328 105.861 33.224C105.861 34.056 105.701 34.784 105.381 35.408C105.077 36.032 104.637 36.56 104.061 36.992C103.501 37.408 102.821 37.72 102.021 37.928C101.237 38.136 100.357 38.24 99.3813 38.24ZM115.308 38.24C113.836 38.24 112.62 37.992 111.66 37.496C110.716 37 110.012 36.264 109.548 35.288C109.084 34.296 108.852 33.072 108.852 31.616C108.852 30.096 109.092 28.824 109.572 27.8C110.068 26.76 110.804 25.976 111.78 25.448C112.756 24.92 113.972 24.656 115.428 24.656C116.084 24.656 116.78 24.72 117.516 24.848C118.252 24.96 118.964 25.168 119.652 25.472L118.644 28.232C118.004 27.976 117.42 27.808 116.892 27.728C116.364 27.648 115.94 27.608 115.62 27.608C114.9 27.608 114.3 27.752 113.82 28.04C113.34 28.328 112.98 28.76 112.74 29.336C112.5 29.912 112.38 30.632 112.38 31.496C112.38 32.376 112.508 33.096 112.764 33.656C113.02 34.216 113.388 34.632 113.868 34.904C114.364 35.16 114.964 35.288 115.668 35.288C116.164 35.288 116.708 35.216 117.3 35.072C117.908 34.912 118.556 34.624 119.244 34.208V37.328C118.556 37.68 117.9 37.92 117.276 38.048C116.652 38.176 115.996 38.24 115.308 38.24ZM122.547 38V35.84L125.955 35.12V27.776L123.195 27.368V24.896H128.595L129.099 27.104H129.267C129.683 26.368 130.211 25.776 130.851 25.328C131.491 24.88 132.299 24.656 133.275 24.656C133.547 24.656 133.891 24.68 134.307 24.728C134.723 24.776 135.139 24.888 135.555 25.064L134.619 28.304C134.395 28.224 134.115 28.152 133.779 28.088C133.443 28.024 133.091 27.992 132.723 27.992C131.987 27.992 131.371 28.16 130.875 28.496C130.395 28.816 130.035 29.256 129.795 29.816C129.555 30.376 129.435 31.008 129.435 31.712V35.12L132.867 35.84V38H122.547ZM141.305 38.24C139.929 38.24 138.889 37.88 138.185 37.16C137.497 36.424 137.153 35.44 137.153 34.208C137.153 33.232 137.361 32.432 137.777 31.808C138.193 31.184 138.809 30.72 139.625 30.416C140.441 30.112 141.433 29.944 142.601 29.912L145.481 29.84V29.264C145.481 28.656 145.265 28.2 144.833 27.896C144.401 27.592 143.745 27.44 142.865 27.44C142.305 27.44 141.705 27.504 141.065 27.632C140.441 27.76 139.777 27.96 139.073 28.232L137.945 25.808C138.697 25.424 139.489 25.136 140.321 24.944C141.169 24.752 142.057 24.656 142.985 24.656C144.841 24.656 146.273 25.04 147.281 25.808C148.289 26.56 148.793 27.712 148.793 29.264V38H146.153L145.601 36.344H145.505C145.105 36.808 144.681 37.184 144.233 37.472C143.785 37.744 143.313 37.936 142.817 38.048C142.337 38.176 141.833 38.24 141.305 38.24ZM142.529 35.504C143.073 35.504 143.569 35.408 144.017 35.216C144.465 35.008 144.817 34.72 145.073 34.352C145.345 33.968 145.481 33.52 145.481 33.008V31.928L143.489 31.976C142.849 31.992 142.305 32.072 141.857 32.216C141.425 32.36 141.097 32.568 140.873 32.84C140.649 33.112 140.537 33.464 140.537 33.896C140.537 34.472 140.729 34.888 141.113 35.144C141.497 35.384 141.969 35.504 142.529 35.504ZM151.664 43.76V24.896H154.304L154.904 26.6H155.072C155.36 26.168 155.704 25.808 156.104 25.52C156.504 25.232 156.944 25.016 157.424 24.872C157.904 24.728 158.408 24.656 158.936 24.656C159.784 24.656 160.512 24.832 161.12 25.184C161.728 25.52 162.224 26 162.608 26.624C163.008 27.248 163.304 27.968 163.496 28.784C163.688 29.6 163.784 30.48 163.784 31.424C163.784 32.848 163.576 34.072 163.16 35.096C162.76 36.12 162.192 36.904 161.456 37.448C160.72 37.976 159.84 38.24 158.816 38.24C158.336 38.24 157.864 38.176 157.4 38.048C156.936 37.92 156.504 37.736 156.104 37.496C155.72 37.24 155.376 36.928 155.072 36.56H154.904C154.984 37.104 155.032 37.536 155.048 37.856C155.064 38.176 155.072 38.376 155.072 38.456V43.76H151.664ZM157.736 35.36C158.584 35.36 159.2 35.048 159.584 34.424C159.984 33.784 160.184 32.768 160.184 31.376C160.184 30.128 159.984 29.176 159.584 28.52C159.2 27.864 158.576 27.536 157.712 27.536C156.88 27.536 156.232 27.84 155.768 28.448C155.304 29.056 155.072 29.912 155.072 31.016V31.4C155.072 32.76 155.304 33.76 155.768 34.4C156.232 35.04 156.888 35.36 157.736 35.36ZM181.045 38V20.864H186.397C188.285 20.864 189.725 21.2 190.717 21.872C191.709 22.528 192.205 23.592 192.205 25.064C192.205 26.104 191.973 26.96 191.509 27.632C191.045 28.304 190.421 28.728 189.637 28.904V29.024C190.229 29.168 190.741 29.4 191.173 29.72C191.605 30.04 191.941 30.464 192.181 30.992C192.437 31.52 192.565 32.184 192.565 32.984C192.565 34.024 192.341 34.92 191.893 35.672C191.461 36.424 190.829 37 189.997 37.4C189.165 37.8 188.157 38 186.973 38H181.045ZM186.637 35.144C187.501 35.144 188.101 34.936 188.437 34.52C188.773 34.104 188.941 33.528 188.941 32.792C188.941 32.296 188.869 31.888 188.725 31.568C188.581 31.232 188.333 30.984 187.981 30.824C187.629 30.648 187.141 30.56 186.517 30.56H184.285V35.144H186.637ZM186.373 27.608C187.221 27.608 187.813 27.456 188.149 27.152C188.501 26.832 188.677 26.336 188.677 25.664C188.677 24.976 188.493 24.48 188.125 24.176C187.757 23.872 187.133 23.72 186.253 23.72H184.285V27.608H186.373ZM199.132 38.24C197.74 38.24 196.652 37.832 195.868 37.016C195.1 36.184 194.716 34.992 194.716 33.44V24.896H198.196V32.552C198.196 33.432 198.348 34.12 198.652 34.616C198.956 35.112 199.508 35.36 200.308 35.36C201.076 35.36 201.66 35.184 202.06 34.832C202.46 34.48 202.732 33.984 202.876 33.344C203.036 32.688 203.116 31.928 203.116 31.064V24.896H206.596V38H203.956L203.38 36.32H203.188C202.932 36.72 202.596 37.064 202.18 37.352C201.78 37.64 201.316 37.856 200.788 38C200.276 38.16 199.724 38.24 199.132 38.24ZM214.434 38.24C213.65 38.24 212.874 38.184 212.106 38.072C211.354 37.96 210.594 37.76 209.826 37.472V34.232C210.514 34.536 211.29 34.8 212.154 35.024C213.018 35.232 213.914 35.336 214.842 35.336C215.45 35.336 215.93 35.264 216.282 35.12C216.634 34.96 216.81 34.704 216.81 34.352C216.81 34.048 216.69 33.808 216.45 33.632C216.21 33.44 215.858 33.256 215.394 33.08C214.946 32.888 214.378 32.664 213.69 32.408C212.97 32.12 212.322 31.824 211.746 31.52C211.186 31.2 210.738 30.808 210.402 30.344C210.082 29.864 209.922 29.248 209.922 28.496C209.922 27.6 210.146 26.872 210.594 26.312C211.058 25.736 211.69 25.32 212.49 25.064C213.29 24.792 214.218 24.656 215.274 24.656C216.122 24.656 216.978 24.744 217.842 24.92C218.706 25.08 219.546 25.336 220.362 25.688L219.282 28.352C218.546 28.08 217.842 27.872 217.17 27.728C216.514 27.584 215.842 27.512 215.154 27.512C214.626 27.512 214.21 27.576 213.906 27.704C213.618 27.832 213.474 28.056 213.474 28.376C213.474 28.664 213.586 28.904 213.81 29.096C214.034 29.272 214.362 29.44 214.794 29.6C215.226 29.744 215.746 29.928 216.354 30.152C217.074 30.408 217.738 30.696 218.346 31.016C218.954 31.336 219.442 31.76 219.81 32.288C220.194 32.8 220.386 33.496 220.386 34.376C220.386 35.272 220.162 36.008 219.714 36.584C219.266 37.144 218.602 37.56 217.722 37.832C216.842 38.104 215.746 38.24 214.434 38.24ZM231.681 38.24C230.561 38.24 229.617 38.08 228.849 37.76C228.097 37.424 227.529 36.912 227.145 36.224C226.761 35.52 226.569 34.608 226.569 33.488V27.776H223.569V25.616L226.833 24.896L227.409 21.632H230.049V24.896H234.969V27.776H230.049V33.128C230.049 33.752 230.153 34.224 230.361 34.544C230.569 34.848 230.849 35.056 231.201 35.168C231.553 35.28 231.937 35.336 232.353 35.336C232.737 35.336 233.129 35.304 233.529 35.24C233.929 35.176 234.449 35.088 235.089 34.976V37.712C234.497 37.904 233.913 38.04 233.337 38.12C232.777 38.2 232.225 38.24 231.681 38.24ZM245.112 38.24C243.576 38.24 242.272 37.976 241.2 37.448C240.128 36.92 239.304 36.144 238.728 35.12C238.168 34.096 237.888 32.848 237.888 31.376C237.888 30.016 238.128 28.832 238.608 27.824C239.088 26.816 239.792 26.04 240.72 25.496C241.648 24.936 242.768 24.656 244.08 24.656C245.312 24.656 246.36 24.904 247.224 25.4C248.088 25.88 248.744 26.576 249.192 27.488C249.656 28.384 249.888 29.464 249.888 30.728V32.456H241.272C241.304 33.096 241.496 33.64 241.848 34.088C242.216 34.52 242.704 34.848 243.312 35.072C243.92 35.28 244.584 35.384 245.304 35.384C245.928 35.384 246.584 35.312 247.272 35.168C247.976 35.008 248.72 34.784 249.504 34.496V37.304C248.8 37.656 248.072 37.896 247.32 38.024C246.584 38.168 245.848 38.24 245.112 38.24ZM246.768 30.08C246.768 29.504 246.648 29.016 246.408 28.616C246.184 28.2 245.88 27.88 245.496 27.656C245.112 27.432 244.664 27.32 244.152 27.32C243.416 27.32 242.784 27.56 242.256 28.04C241.728 28.504 241.424 29.184 241.344 30.08H246.768ZM252.062 38V35.84L255.47 35.12V27.776L252.71 27.368V24.896H258.11L258.614 27.104H258.782C259.198 26.368 259.726 25.776 260.366 25.328C261.006 24.88 261.814 24.656 262.79 24.656C263.062 24.656 263.406 24.68 263.822 24.728C264.238 24.776 264.654 24.888 265.07 25.064L264.134 28.304C263.91 28.224 263.63 28.152 263.294 28.088C262.958 28.024 262.606 27.992 262.238 27.992C261.502 27.992 260.886 28.16 260.39 28.496C259.91 28.816 259.55 29.256 259.31 29.816C259.07 30.376 258.95 31.008 258.95 31.712V35.12L262.382 35.84V38H252.062ZM271.997 38.24C271.213 38.24 270.437 38.184 269.669 38.072C268.917 37.96 268.157 37.76 267.389 37.472V34.232C268.077 34.536 268.853 34.8 269.717 35.024C270.581 35.232 271.477 35.336 272.405 35.336C273.013 35.336 273.493 35.264 273.845 35.12C274.197 34.96 274.373 34.704 274.373 34.352C274.373 34.048 274.253 33.808 274.013 33.632C273.773 33.44 273.421 33.256 272.957 33.08C272.509 32.888 271.941 32.664 271.253 32.408C270.533 32.12 269.885 31.824 269.309 31.52C268.749 31.2 268.301 30.808 267.965 30.344C267.645 29.864 267.485 29.248 267.485 28.496C267.485 27.6 267.709 26.872 268.157 26.312C268.621 25.736 269.253 25.32 270.053 25.064C270.853 24.792 271.781 24.656 272.837 24.656C273.685 24.656 274.541 24.744 275.405 24.92C276.269 25.08 277.109 25.336 277.925 25.688L276.845 28.352C276.109 28.08 275.405 27.872 274.733 27.728C274.077 27.584 273.405 27.512 272.717 27.512C272.189 27.512 271.773 27.576 271.469 27.704C271.181 27.832 271.037 28.056 271.037 28.376C271.037 28.664 271.149 28.904 271.373 29.096C271.597 29.272 271.925 29.44 272.357 29.6C272.789 29.744 273.309 29.928 273.917 30.152C274.637 30.408 275.301 30.696 275.909 31.016C276.517 31.336 277.005 31.76 277.373 32.288C277.757 32.8 277.949 33.496 277.949 34.376C277.949 35.272 277.725 36.008 277.277 36.584C276.829 37.144 276.165 37.56 275.285 37.832C274.405 38.104 273.309 38.24 271.997 38.24Z" fill="black" fill-opacity="0.5"/>
<path d="M66.38 103.92V100.644L74.164 97.032L66.38 93.196V89.892L78.42 96.108V98.068L66.38 103.92ZM98.8381 107V87.008H102.898V94.82H109.058V87.008H113.118V107H109.058V98.32H102.898V107H98.8381ZM122.767 107.28C121.629 107.28 120.602 107.093 119.687 106.72C118.791 106.347 118.026 105.815 117.391 105.124C116.775 104.433 116.299 103.612 115.963 102.66C115.646 101.689 115.487 100.607 115.487 99.412C115.487 97.788 115.777 96.3787 116.355 95.184C116.953 93.9893 117.802 93.0653 118.903 92.412C120.005 91.7587 121.311 91.432 122.823 91.432C124.298 91.432 125.577 91.7493 126.659 92.384C127.742 93 128.573 93.9053 129.151 95.1C129.749 96.276 130.047 97.6947 130.047 99.356C130.047 100.532 129.889 101.605 129.571 102.576C129.254 103.547 128.787 104.387 128.171 105.096C127.555 105.787 126.79 106.328 125.875 106.72C124.979 107.093 123.943 107.28 122.767 107.28ZM122.823 104.004C123.533 104.004 124.111 103.817 124.559 103.444C125.026 103.071 125.371 102.539 125.595 101.848C125.819 101.139 125.931 100.308 125.931 99.356C125.931 98.4227 125.819 97.6107 125.595 96.92C125.39 96.2107 125.054 95.6693 124.587 95.296C124.139 94.904 123.551 94.708 122.823 94.708C121.741 94.708 120.929 95.128 120.387 95.968C119.865 96.7893 119.603 97.9187 119.603 99.356C119.603 100.308 119.715 101.129 119.939 101.82C120.182 102.511 120.546 103.052 121.031 103.444C121.517 103.817 122.114 104.004 122.823 104.004ZM133.396 107L131.24 91.712H134.936L135.636 99.608C135.674 100 135.711 100.383 135.748 100.756C135.786 101.129 135.823 101.54 135.86 101.988C135.898 102.417 135.944 102.931 136 103.528H136.112C136.187 102.931 136.252 102.427 136.308 102.016C136.364 101.587 136.42 101.185 136.476 100.812C136.551 100.42 136.635 100 136.728 99.552L137.848 93.952H141.32L142.44 99.58C142.515 99.9347 142.59 100.317 142.664 100.728C142.739 101.139 142.814 101.577 142.888 102.044C142.963 102.492 143.038 102.987 143.112 103.528H143.224C143.28 102.987 143.327 102.492 143.364 102.044C143.402 101.577 143.439 101.148 143.476 100.756C143.514 100.345 143.542 99.9627 143.56 99.608L144.26 91.712H147.9L145.744 107H141.124L140.06 101.064C139.948 100.448 139.864 99.944 139.808 99.552C139.752 99.1413 139.687 98.7027 139.612 98.236H139.5C139.426 98.7213 139.36 99.16 139.304 99.552C139.248 99.944 139.164 100.448 139.052 101.064L137.96 107H133.396ZM175.682 107.28C174.376 107.28 173.274 107.093 172.378 106.72C171.501 106.328 170.838 105.731 170.39 104.928C169.942 104.107 169.718 103.043 169.718 101.736V95.072H166.218V92.552L170.026 91.712L170.698 87.904H173.778V91.712H179.518V95.072H173.778V101.316C173.778 102.044 173.9 102.595 174.142 102.968C174.385 103.323 174.712 103.565 175.122 103.696C175.533 103.827 175.981 103.892 176.466 103.892C176.914 103.892 177.372 103.855 177.838 103.78C178.305 103.705 178.912 103.603 179.658 103.472V106.664C178.968 106.888 178.286 107.047 177.614 107.14C176.961 107.233 176.317 107.28 175.682 107.28ZM189.923 107.28C188.785 107.28 187.758 107.093 186.843 106.72C185.947 106.347 185.182 105.815 184.547 105.124C183.931 104.433 183.455 103.612 183.119 102.66C182.802 101.689 182.643 100.607 182.643 99.412C182.643 97.788 182.933 96.3787 183.511 95.184C184.109 93.9893 184.958 93.0653 186.059 92.412C187.161 91.7587 188.467 91.432 189.979 91.432C191.454 91.432 192.733 91.7493 193.815 92.384C194.898 93 195.729 93.9053 196.307 95.1C196.905 96.276 197.203 97.6947 197.203 99.356C197.203 100.532 197.045 101.605 196.727 102.576C196.41 103.547 195.943 104.387 195.327 105.096C194.711 105.787 193.946 106.328 193.031 106.72C192.135 107.093 191.099 107.28 189.923 107.28ZM189.979 104.004C190.689 104.004 191.267 103.817 191.715 103.444C192.182 103.071 192.527 102.539 192.751 101.848C192.975 101.139 193.087 100.308 193.087 99.356C193.087 98.4227 192.975 97.6107 192.751 96.92C192.546 96.2107 192.21 95.6693 191.743 95.296C191.295 94.904 190.707 94.708 189.979 94.708C188.897 94.708 188.085 95.128 187.543 95.968C187.021 96.7893 186.759 97.9187 186.759 99.356C186.759 100.308 186.871 101.129 187.095 101.82C187.338 102.511 187.702 103.052 188.187 103.444C188.673 103.817 189.27 104.004 189.979 104.004ZM217.342 107V87.008H222.69C224.276 87.008 225.602 87.2507 226.666 87.736C227.748 88.2027 228.57 88.884 229.13 89.78C229.69 90.676 229.97 91.7587 229.97 93.028C229.97 93.924 229.83 94.7267 229.55 95.436C229.27 96.1453 228.878 96.7613 228.374 97.284C227.87 97.788 227.272 98.208 226.582 98.544L231.482 107H227.17L222.998 99.468H221.402V107H217.342ZM222.606 96.024C223.315 96.024 223.912 95.9213 224.398 95.716C224.883 95.492 225.247 95.1653 225.49 94.736C225.751 94.3067 225.882 93.7653 225.882 93.112C225.882 92.1227 225.592 91.432 225.014 91.04C224.454 90.648 223.623 90.452 222.522 90.452H221.402V96.024H222.606ZM238.443 107.28C236.819 107.28 235.549 106.804 234.635 105.852C233.739 104.881 233.291 103.491 233.291 101.68V91.712H237.351V100.644C237.351 101.671 237.528 102.473 237.883 103.052C238.237 103.631 238.881 103.92 239.815 103.92C240.711 103.92 241.392 103.715 241.859 103.304C242.325 102.893 242.643 102.315 242.811 101.568C242.997 100.803 243.091 99.916 243.091 98.908V91.712H247.151V107H244.071L243.399 105.04H243.175C242.876 105.507 242.484 105.908 241.999 106.244C241.532 106.58 240.991 106.832 240.375 107C239.777 107.187 239.133 107.28 238.443 107.28ZM250.22 107V91.712H253.3L253.972 93.672H254.196C254.513 93.168 254.896 92.7573 255.344 92.44C255.792 92.104 256.305 91.852 256.884 91.684C257.481 91.516 258.125 91.432 258.816 91.432C260.533 91.432 261.84 91.9173 262.736 92.888C263.632 93.84 264.08 95.2213 264.08 97.032V107H260.02V98.068C260.02 96.948 259.796 96.1267 259.348 95.604C258.9 95.0627 258.256 94.792 257.416 94.792C256.314 94.792 255.512 95.24 255.008 96.136C254.522 97.032 254.28 98.2547 254.28 99.804V107H250.22ZM271.265 99.356C271.265 98.7027 271.358 98.1333 271.545 97.648C271.731 97.144 272.011 96.6867 272.385 96.276C272.777 95.8653 273.271 95.4453 273.869 95.016C274.335 94.68 274.727 94.3627 275.045 94.064C275.381 93.7467 275.633 93.42 275.801 93.084C275.987 92.7293 276.081 92.3373 276.081 91.908C276.081 91.3107 275.866 90.8627 275.437 90.564C275.026 90.2467 274.457 90.088 273.729 90.088C273.075 90.088 272.385 90.2 271.657 90.424C270.947 90.648 270.126 90.984 269.193 91.432L267.709 88.436C268.773 87.8573 269.809 87.428 270.817 87.148C271.843 86.868 272.917 86.728 274.037 86.728C275.175 86.728 276.193 86.9147 277.089 87.288C277.985 87.6613 278.694 88.2213 279.217 88.968C279.758 89.696 280.029 90.6013 280.029 91.684C280.029 92.4867 279.917 93.168 279.693 93.728C279.487 94.288 279.151 94.8013 278.685 95.268C278.218 95.716 277.621 96.2107 276.893 96.752C276.445 97.088 276.071 97.3867 275.773 97.648C275.474 97.8907 275.25 98.1613 275.101 98.46C274.951 98.74 274.877 99.104 274.877 99.552V100.364H271.265V99.356ZM273.113 107.28C272.31 107.28 271.685 107.065 271.237 106.636C270.789 106.207 270.565 105.6 270.565 104.816C270.565 103.995 270.779 103.379 271.209 102.968C271.657 102.557 272.291 102.352 273.113 102.352C273.915 102.352 274.531 102.567 274.961 102.996C275.409 103.425 275.633 104.032 275.633 104.816C275.633 105.563 275.409 106.16 274.961 106.608C274.513 107.056 273.897 107.28 273.113 107.28Z" fill="black"/>
<path d="M0 16C0 7.16344 7.16344 0 16 0H50V138H16C7.16344 138 0 130.837 0 122V16Z" fill="#0066B3"/>
<path d="M619 122C619 130.837 611.837 138 603 138H569V0H603C611.837 0 619 7.16344 619 16V122Z" fill="#0066B3"/>
<circle cx="545" cy="28" r="10" fill="black"/>
<circle cx="511" cy="28" r="10" fill="#0066B3"/>
<circle cx="477" cy="28" r="10" fill="#E9E9E9"/>
</svg>
