<svg width="619" height="138" viewBox="0 0 619 138" fill="none" xmlns="http://www.w3.org/2000/svg">
<path d="M0 16C0 7.16344 7.16344 0 16 0H603C611.837 0 619 7.16344 619 16V122C619 130.837 611.837 138 603 138H16C7.16345 138 0 130.837 0 122V16Z" fill="white"/>
<path d="M66.04 35.36V32.552L72.712 29.456L66.04 26.168V23.336L76.36 28.664V30.344L66.04 35.36ZM99.3813 38.24C98.5173 38.24 97.6613 38.16 96.8133 38C95.9813 37.824 95.1973 37.56 94.4613 37.208V34.04C95.3573 34.488 96.2213 34.824 97.0533 35.048C97.8853 35.256 98.6933 35.36 99.4773 35.36C100.037 35.36 100.525 35.304 100.941 35.192C101.373 35.064 101.709 34.864 101.949 34.592C102.189 34.304 102.309 33.912 102.309 33.416C102.309 32.904 102.165 32.504 101.877 32.216C101.605 31.928 101.205 31.656 100.677 31.4C100.149 31.128 99.5173 30.8 98.7812 30.416C98.0453 30.016 97.3733 29.584 96.7653 29.12C96.1573 28.656 95.6773 28.112 95.3253 27.488C94.9733 26.848 94.7973 26.08 94.7973 25.184C94.7973 24.16 95.0293 23.312 95.4933 22.64C95.9733 21.968 96.6293 21.464 97.4613 21.128C98.3093 20.792 99.2933 20.624 100.413 20.624C101.085 20.624 101.885 20.704 102.813 20.864C103.741 21.008 104.653 21.296 105.549 21.728L104.445 24.44C103.661 24.104 102.949 23.864 102.309 23.72C101.669 23.576 101.101 23.504 100.605 23.504C100.093 23.504 99.6693 23.576 99.3333 23.72C98.9973 23.864 98.7493 24.072 98.5893 24.344C98.4293 24.616 98.3493 24.952 98.3493 25.352C98.3493 25.816 98.4613 26.192 98.6853 26.48C98.9093 26.768 99.2453 27.032 99.6933 27.272C100.141 27.496 100.709 27.784 101.397 28.136C102.341 28.6 103.141 29.056 103.797 29.504C104.469 29.936 104.981 30.44 105.333 31.016C105.685 31.592 105.861 32.328 105.861 33.224C105.861 34.056 105.701 34.784 105.381 35.408C105.077 36.032 104.637 36.56 104.061 36.992C103.501 37.408 102.821 37.72 102.021 37.928C101.237 38.136 100.357 38.24 99.3813 38.24ZM115.308 38.24C113.836 38.24 112.62 37.992 111.66 37.496C110.716 37 110.012 36.264 109.548 35.288C109.084 34.296 108.852 33.072 108.852 31.616C108.852 30.096 109.092 28.824 109.572 27.8C110.068 26.76 110.804 25.976 111.78 25.448C112.756 24.92 113.972 24.656 115.428 24.656C116.084 24.656 116.78 24.72 117.516 24.848C118.252 24.96 118.964 25.168 119.652 25.472L118.644 28.232C118.004 27.976 117.42 27.808 116.892 27.728C116.364 27.648 115.94 27.608 115.62 27.608C114.9 27.608 114.3 27.752 113.82 28.04C113.34 28.328 112.98 28.76 112.74 29.336C112.5 29.912 112.38 30.632 112.38 31.496C112.38 32.376 112.508 33.096 112.764 33.656C113.02 34.216 113.388 34.632 113.868 34.904C114.364 35.16 114.964 35.288 115.668 35.288C116.164 35.288 116.708 35.216 117.3 35.072C117.908 34.912 118.556 34.624 119.244 34.208V37.328C118.556 37.68 117.9 37.92 117.276 38.048C116.652 38.176 115.996 38.24 115.308 38.24ZM122.547 38V35.84L125.955 35.12V27.776L123.195 27.368V24.896H128.595L129.099 27.104H129.267C129.683 26.368 130.211 25.776 130.851 25.328C131.491 24.88 132.299 24.656 133.275 24.656C133.547 24.656 133.891 24.68 134.307 24.728C134.723 24.776 135.139 24.888 135.555 25.064L134.619 28.304C134.395 28.224 134.115 28.152 133.779 28.088C133.443 28.024 133.091 27.992 132.723 27.992C131.987 27.992 131.371 28.16 130.875 28.496C130.395 28.816 130.035 29.256 129.795 29.816C129.555 30.376 129.435 31.008 129.435 31.712V35.12L132.867 35.84V38H122.547ZM141.305 38.24C139.929 38.24 138.889 37.88 138.185 37.16C137.497 36.424 137.153 35.44 137.153 34.208C137.153 33.232 137.361 32.432 137.777 31.808C138.193 31.184 138.809 30.72 139.625 30.416C140.441 30.112 141.433 29.944 142.601 29.912L145.481 29.84V29.264C145.481 28.656 145.265 28.2 144.833 27.896C144.401 27.592 143.745 27.44 142.865 27.44C142.305 27.44 141.705 27.504 141.065 27.632C140.441 27.76 139.777 27.96 139.073 28.232L137.945 25.808C138.697 25.424 139.489 25.136 140.321 24.944C141.169 24.752 142.057 24.656 142.985 24.656C144.841 24.656 146.273 25.04 147.281 25.808C148.289 26.56 148.793 27.712 148.793 29.264V38H146.153L145.601 36.344H145.505C145.105 36.808 144.681 37.184 144.233 37.472C143.785 37.744 143.313 37.936 142.817 38.048C142.337 38.176 141.833 38.24 141.305 38.24ZM142.529 35.504C143.073 35.504 143.569 35.408 144.017 35.216C144.465 35.008 144.817 34.72 145.073 34.352C145.345 33.968 145.481 33.52 145.481 33.008V31.928L143.489 31.976C142.849 31.992 142.305 32.072 141.857 32.216C141.425 32.36 141.097 32.568 140.873 32.84C140.649 33.112 140.537 33.464 140.537 33.896C140.537 34.472 140.729 34.888 141.113 35.144C141.497 35.384 141.969 35.504 142.529 35.504ZM151.664 43.76V24.896H154.304L154.904 26.6H155.072C155.36 26.168 155.704 25.808 156.104 25.52C156.504 25.232 156.944 25.016 157.424 24.872C157.904 24.728 158.408 24.656 158.936 24.656C159.784 24.656 160.512 24.832 161.12 25.184C161.728 25.52 162.224 26 162.608 26.624C163.008 27.248 163.304 27.968 163.496 28.784C163.688 29.6 163.784 30.48 163.784 31.424C163.784 32.848 163.576 34.072 163.16 35.096C162.76 36.12 162.192 36.904 161.456 37.448C160.72 37.976 159.84 38.24 158.816 38.24C158.336 38.24 157.864 38.176 157.4 38.048C156.936 37.92 156.504 37.736 156.104 37.496C155.72 37.24 155.376 36.928 155.072 36.56H154.904C154.984 37.104 155.032 37.536 155.048 37.856C155.064 38.176 155.072 38.376 155.072 38.456V43.76H151.664ZM157.736 35.36C158.584 35.36 159.2 35.048 159.584 34.424C159.984 33.784 160.184 32.768 160.184 31.376C160.184 30.128 159.984 29.176 159.584 28.52C159.2 27.864 158.576 27.536 157.712 27.536C156.88 27.536 156.232 27.84 155.768 28.448C155.304 29.056 155.072 29.912 155.072 31.016V31.4C155.072 32.76 155.304 33.76 155.768 34.4C156.232 35.04 156.888 35.36 157.736 35.36ZM181.045 38V20.864H186.397C188.285 20.864 189.725 21.2 190.717 21.872C191.709 22.528 192.205 23.592 192.205 25.064C192.205 26.104 191.973 26.96 191.509 27.632C191.045 28.304 190.421 28.728 189.637 28.904V29.024C190.229 29.168 190.741 29.4 191.173 29.72C191.605 30.04 191.941 30.464 192.181 30.992C192.437 31.52 192.565 32.184 192.565 32.984C192.565 34.024 192.341 34.92 191.893 35.672C191.461 36.424 190.829 37 189.997 37.4C189.165 37.8 188.157 38 186.973 38H181.045ZM186.637 35.144C187.501 35.144 188.101 34.936 188.437 34.52C188.773 34.104 188.941 33.528 188.941 32.792C188.941 32.296 188.869 31.888 188.725 31.568C188.581 31.232 188.333 30.984 187.981 30.824C187.629 30.648 187.141 30.56 186.517 30.56H184.285V35.144H186.637ZM186.373 27.608C187.221 27.608 187.813 27.456 188.149 27.152C188.501 26.832 188.677 26.336 188.677 25.664C188.677 24.976 188.493 24.48 188.125 24.176C187.757 23.872 187.133 23.72 186.253 23.72H184.285V27.608H186.373ZM199.132 38.24C197.74 38.24 196.652 37.832 195.868 37.016C195.1 36.184 194.716 34.992 194.716 33.44V24.896H198.196V32.552C198.196 33.432 198.348 34.12 198.652 34.616C198.956 35.112 199.508 35.36 200.308 35.36C201.076 35.36 201.66 35.184 202.06 34.832C202.46 34.48 202.732 33.984 202.876 33.344C203.036 32.688 203.116 31.928 203.116 31.064V24.896H206.596V38H203.956L203.38 36.32H203.188C202.932 36.72 202.596 37.064 202.18 37.352C201.78 37.64 201.316 37.856 200.788 38C200.276 38.16 199.724 38.24 199.132 38.24ZM214.434 38.24C213.65 38.24 212.874 38.184 212.106 38.072C211.354 37.96 210.594 37.76 209.826 37.472V34.232C210.514 34.536 211.29 34.8 212.154 35.024C213.018 35.232 213.914 35.336 214.842 35.336C215.45 35.336 215.93 35.264 216.282 35.12C216.634 34.96 216.81 34.704 216.81 34.352C216.81 34.048 216.69 33.808 216.45 33.632C216.21 33.44 215.858 33.256 215.394 33.08C214.946 32.888 214.378 32.664 213.69 32.408C212.97 32.12 212.322 31.824 211.746 31.52C211.186 31.2 210.738 30.808 210.402 30.344C210.082 29.864 209.922 29.248 209.922 28.496C209.922 27.6 210.146 26.872 210.594 26.312C211.058 25.736 211.69 25.32 212.49 25.064C213.29 24.792 214.218 24.656 215.274 24.656C216.122 24.656 216.978 24.744 217.842 24.92C218.706 25.08 219.546 25.336 220.362 25.688L219.282 28.352C218.546 28.08 217.842 27.872 217.17 27.728C216.514 27.584 215.842 27.512 215.154 27.512C214.626 27.512 214.21 27.576 213.906 27.704C213.618 27.832 213.474 28.056 213.474 28.376C213.474 28.664 213.586 28.904 213.81 29.096C214.034 29.272 214.362 29.44 214.794 29.6C215.226 29.744 215.746 29.928 216.354 30.152C217.074 30.408 217.738 30.696 218.346 31.016C218.954 31.336 219.442 31.76 219.81 32.288C220.194 32.8 220.386 33.496 220.386 34.376C220.386 35.272 220.162 36.008 219.714 36.584C219.266 37.144 218.602 37.56 217.722 37.832C216.842 38.104 215.746 38.24 214.434 38.24ZM231.681 38.24C230.561 38.24 229.617 38.08 228.849 37.76C228.097 37.424 227.529 36.912 227.145 36.224C226.761 35.52 226.569 34.608 226.569 33.488V27.776H223.569V25.616L226.833 24.896L227.409 21.632H230.049V24.896H234.969V27.776H230.049V33.128C230.049 33.752 230.153 34.224 230.361 34.544C230.569 34.848 230.849 35.056 231.201 35.168C231.553 35.28 231.937 35.336 232.353 35.336C232.737 35.336 233.129 35.304 233.529 35.24C233.929 35.176 234.449 35.088 235.089 34.976V37.712C234.497 37.904 233.913 38.04 233.337 38.12C232.777 38.2 232.225 38.24 231.681 38.24ZM245.112 38.24C243.576 38.24 242.272 37.976 241.2 37.448C240.128 36.92 239.304 36.144 238.728 35.12C238.168 34.096 237.888 32.848 237.888 31.376C237.888 30.016 238.128 28.832 238.608 27.824C239.088 26.816 239.792 26.04 240.72 25.496C241.648 24.936 242.768 24.656 244.08 24.656C245.312 24.656 246.36 24.904 247.224 25.4C248.088 25.88 248.744 26.576 249.192 27.488C249.656 28.384 249.888 29.464 249.888 30.728V32.456H241.272C241.304 33.096 241.496 33.64 241.848 34.088C242.216 34.52 242.704 34.848 243.312 35.072C243.92 35.28 244.584 35.384 245.304 35.384C245.928 35.384 246.584 35.312 247.272 35.168C247.976 35.008 248.72 34.784 249.504 34.496V37.304C248.8 37.656 248.072 37.896 247.32 38.024C246.584 38.168 245.848 38.24 245.112 38.24ZM246.768 30.08C246.768 29.504 246.648 29.016 246.408 28.616C246.184 28.2 245.88 27.88 245.496 27.656C245.112 27.432 244.664 27.32 244.152 27.32C243.416 27.32 242.784 27.56 242.256 28.04C241.728 28.504 241.424 29.184 241.344 30.08H246.768ZM252.062 38V35.84L255.47 35.12V27.776L252.71 27.368V24.896H258.11L258.614 27.104H258.782C259.198 26.368 259.726 25.776 260.366 25.328C261.006 24.88 261.814 24.656 262.79 24.656C263.062 24.656 263.406 24.68 263.822 24.728C264.238 24.776 264.654 24.888 265.07 25.064L264.134 28.304C263.91 28.224 263.63 28.152 263.294 28.088C262.958 28.024 262.606 27.992 262.238 27.992C261.502 27.992 260.886 28.16 260.39 28.496C259.91 28.816 259.55 29.256 259.31 29.816C259.07 30.376 258.95 31.008 258.95 31.712V35.12L262.382 35.84V38H252.062ZM271.997 38.24C271.213 38.24 270.437 38.184 269.669 38.072C268.917 37.96 268.157 37.76 267.389 37.472V34.232C268.077 34.536 268.853 34.8 269.717 35.024C270.581 35.232 271.477 35.336 272.405 35.336C273.013 35.336 273.493 35.264 273.845 35.12C274.197 34.96 274.373 34.704 274.373 34.352C274.373 34.048 274.253 33.808 274.013 33.632C273.773 33.44 273.421 33.256 272.957 33.08C272.509 32.888 271.941 32.664 271.253 32.408C270.533 32.12 269.885 31.824 269.309 31.52C268.749 31.2 268.301 30.808 267.965 30.344C267.645 29.864 267.485 29.248 267.485 28.496C267.485 27.6 267.709 26.872 268.157 26.312C268.621 25.736 269.253 25.32 270.053 25.064C270.853 24.792 271.781 24.656 272.837 24.656C273.685 24.656 274.541 24.744 275.405 24.92C276.269 25.08 277.109 25.336 277.925 25.688L276.845 28.352C276.109 28.08 275.405 27.872 274.733 27.728C274.077 27.584 273.405 27.512 272.717 27.512C272.189 27.512 271.773 27.576 271.469 27.704C271.181 27.832 271.037 28.056 271.037 28.376C271.037 28.664 271.149 28.904 271.373 29.096C271.597 29.272 271.925 29.44 272.357 29.6C272.789 29.744 273.309 29.928 273.917 30.152C274.637 30.408 275.301 30.696 275.909 31.016C276.517 31.336 277.005 31.76 277.373 32.288C277.757 32.8 277.949 33.496 277.949 34.376C277.949 35.272 277.725 36.008 277.277 36.584C276.829 37.144 276.165 37.56 275.285 37.832C274.405 38.104 273.309 38.24 271.997 38.24Z" fill="black" fill-opacity="0.5"/>
<path d="M66.38 103.92V100.644L74.164 97.032L66.38 93.196V89.892L78.42 96.108V98.068L66.38 103.92ZM99.8181 107V87.008H106.454C108.75 87.008 110.458 87.5493 111.578 88.632C112.698 89.696 113.258 91.2267 113.258 93.224C113.258 94.5493 113.015 95.716 112.53 96.724C112.063 97.7133 111.307 98.488 110.262 99.048C109.235 99.608 107.882 99.888 106.202 99.888H103.738V107H99.8181ZM105.782 96.444C106.566 96.444 107.21 96.332 107.714 96.108C108.218 95.8653 108.591 95.52 108.834 95.072C109.095 94.6053 109.226 94.0453 109.226 93.392C109.226 92.4027 108.993 91.6653 108.526 91.18C108.059 90.6947 107.322 90.452 106.314 90.452H103.738V96.444H105.782ZM115.515 107V104.48L119.491 103.64V95.072L116.271 94.596V91.712H122.571L123.159 94.288H123.355C123.841 93.4293 124.457 92.7387 125.203 92.216C125.95 91.6933 126.893 91.432 128.031 91.432C128.349 91.432 128.75 91.46 129.235 91.516C129.721 91.572 130.206 91.7027 130.691 91.908L129.599 95.688C129.338 95.5947 129.011 95.5107 128.619 95.436C128.227 95.3613 127.817 95.324 127.387 95.324C126.529 95.324 125.81 95.52 125.231 95.912C124.671 96.2853 124.251 96.7987 123.971 97.452C123.691 98.1053 123.551 98.8427 123.551 99.664V103.64L127.555 104.48V107H115.515ZM139.556 107.28C138.418 107.28 137.391 107.093 136.476 106.72C135.58 106.347 134.815 105.815 134.18 105.124C133.564 104.433 133.088 103.612 132.752 102.66C132.435 101.689 132.276 100.607 132.276 99.412C132.276 97.788 132.566 96.3787 133.144 95.184C133.742 93.9893 134.591 93.0653 135.692 92.412C136.794 91.7587 138.1 91.432 139.612 91.432C141.087 91.432 142.366 91.7493 143.448 92.384C144.531 93 145.362 93.9053 145.94 95.1C146.538 96.276 146.836 97.6947 146.836 99.356C146.836 100.532 146.678 101.605 146.36 102.576C146.043 103.547 145.576 104.387 144.96 105.096C144.344 105.787 143.579 106.328 142.664 106.72C141.768 107.093 140.732 107.28 139.556 107.28ZM139.612 104.004C140.322 104.004 140.9 103.817 141.348 103.444C141.815 103.071 142.16 102.539 142.384 101.848C142.608 101.139 142.72 100.308 142.72 99.356C142.72 98.4227 142.608 97.6107 142.384 96.92C142.179 96.2107 141.843 95.6693 141.376 95.296C140.928 94.904 140.34 94.708 139.612 94.708C138.53 94.708 137.718 95.128 137.176 95.968C136.654 96.7893 136.392 97.9187 136.392 99.356C136.392 100.308 136.504 101.129 136.728 101.82C136.971 102.511 137.335 103.052 137.82 103.444C138.306 103.817 138.903 104.004 139.612 104.004ZM153.433 113.86C152.761 113.86 152.043 113.804 151.277 113.692C150.512 113.599 149.775 113.449 149.065 113.244V109.8C149.513 109.912 149.961 110.005 150.409 110.08C150.876 110.173 151.315 110.239 151.725 110.276C152.155 110.313 152.519 110.332 152.817 110.332C153.564 110.332 154.161 110.211 154.609 109.968C155.057 109.744 155.384 109.371 155.589 108.848C155.795 108.325 155.897 107.625 155.897 106.748V95.072L151.557 94.596V91.712H159.957V107.532C159.957 109.697 159.416 111.293 158.333 112.32C157.251 113.347 155.617 113.86 153.433 113.86ZM157.605 89.976C156.803 89.976 156.196 89.78 155.785 89.388C155.375 88.996 155.169 88.408 155.169 87.624C155.169 86.8587 155.375 86.28 155.785 85.888C156.196 85.4773 156.821 85.272 157.661 85.272C158.483 85.272 159.099 85.468 159.509 85.86C159.92 86.252 160.125 86.8307 160.125 87.596C160.125 88.3613 159.911 88.9493 159.481 89.36C159.071 89.7707 158.445 89.976 157.605 89.976ZM174.562 107.28C172.77 107.28 171.249 106.972 169.998 106.356C168.748 105.74 167.786 104.835 167.114 103.64C166.461 102.445 166.134 100.989 166.134 99.272C166.134 97.6853 166.414 96.304 166.974 95.128C167.534 93.952 168.356 93.0467 169.438 92.412C170.521 91.7587 171.828 91.432 173.358 91.432C174.796 91.432 176.018 91.7213 177.026 92.3C178.034 92.86 178.8 93.672 179.322 94.736C179.864 95.7813 180.134 97.0413 180.134 98.516V100.532H170.082C170.12 101.279 170.344 101.913 170.754 102.436C171.184 102.94 171.753 103.323 172.462 103.584C173.172 103.827 173.946 103.948 174.786 103.948C175.514 103.948 176.28 103.864 177.082 103.696C177.904 103.509 178.772 103.248 179.686 102.912V106.188C178.865 106.599 178.016 106.879 177.138 107.028C176.28 107.196 175.421 107.28 174.562 107.28ZM176.494 97.76C176.494 97.088 176.354 96.5187 176.074 96.052C175.813 95.5667 175.458 95.1933 175.01 94.932C174.562 94.6707 174.04 94.54 173.442 94.54C172.584 94.54 171.846 94.82 171.23 95.38C170.614 95.9213 170.26 96.7147 170.166 97.76H176.494ZM191.015 107.28C189.298 107.28 187.879 106.991 186.759 106.412C185.658 105.833 184.837 104.975 184.295 103.836C183.754 102.679 183.483 101.251 183.483 99.552C183.483 97.7787 183.763 96.2947 184.323 95.1C184.902 93.8867 185.761 92.972 186.899 92.356C188.038 91.74 189.457 91.432 191.155 91.432C191.921 91.432 192.733 91.5067 193.591 91.656C194.45 91.7867 195.281 92.0293 196.083 92.384L194.907 95.604C194.161 95.3053 193.479 95.1093 192.863 95.016C192.247 94.9227 191.753 94.876 191.379 94.876C190.539 94.876 189.839 95.044 189.279 95.38C188.719 95.716 188.299 96.22 188.019 96.892C187.739 97.564 187.599 98.404 187.599 99.412C187.599 100.439 187.749 101.279 188.047 101.932C188.346 102.585 188.775 103.071 189.335 103.388C189.914 103.687 190.614 103.836 191.435 103.836C192.014 103.836 192.649 103.752 193.339 103.584C194.049 103.397 194.805 103.061 195.607 102.576V106.216C194.805 106.627 194.039 106.907 193.311 107.056C192.583 107.205 191.818 107.28 191.015 107.28ZM209.261 107.28C207.954 107.28 206.853 107.093 205.957 106.72C205.079 106.328 204.417 105.731 203.969 104.928C203.521 104.107 203.297 103.043 203.297 101.736V95.072H199.797V92.552L203.605 91.712L204.277 87.904H207.357V91.712H213.096V95.072H207.357V101.316C207.357 102.044 207.478 102.595 207.721 102.968C207.963 103.323 208.29 103.565 208.701 103.696C209.111 103.827 209.559 103.892 210.045 103.892C210.493 103.892 210.95 103.855 211.417 103.78C211.883 103.705 212.49 103.603 213.237 103.472V106.664C212.546 106.888 211.865 107.047 211.193 107.14C210.539 107.233 209.895 107.28 209.261 107.28ZM233.151 107V87.008H239.339C241.075 87.008 242.577 87.3813 243.847 88.128C245.116 88.856 246.096 89.948 246.787 91.404C247.496 92.86 247.851 94.6707 247.851 96.836C247.851 99.02 247.487 100.868 246.759 102.38C246.049 103.892 245.032 105.04 243.707 105.824C242.4 106.608 240.841 107 239.031 107H233.151ZM238.807 103.556C240.505 103.556 241.747 103.005 242.531 101.904C243.333 100.803 243.735 99.1227 243.735 96.864C243.735 95.3707 243.557 94.1573 243.203 93.224C242.867 92.272 242.363 91.572 241.691 91.124C241.019 90.676 240.169 90.452 239.143 90.452H237.155V103.556H238.807ZM258.508 107.28C256.716 107.28 255.194 106.972 253.944 106.356C252.693 105.74 251.732 104.835 251.06 103.64C250.406 102.445 250.08 100.989 250.08 99.272C250.08 97.6853 250.36 96.304 250.92 95.128C251.48 93.952 252.301 93.0467 253.384 92.412C254.466 91.7587 255.773 91.432 257.304 91.432C258.741 91.432 259.964 91.7213 260.972 92.3C261.98 92.86 262.745 93.672 263.268 94.736C263.809 95.7813 264.08 97.0413 264.08 98.516V100.532H254.028C254.065 101.279 254.289 101.913 254.7 102.436C255.129 102.94 255.698 103.323 256.408 103.584C257.117 103.827 257.892 103.948 258.732 103.948C259.46 103.948 260.225 103.864 261.028 103.696C261.849 103.509 262.717 103.248 263.632 102.912V106.188C262.81 106.599 261.961 106.879 261.084 107.028C260.225 107.196 259.366 107.28 258.508 107.28ZM260.44 97.76C260.44 97.088 260.3 96.5187 260.02 96.052C259.758 95.5667 259.404 95.1933 258.956 94.932C258.508 94.6707 257.985 94.54 257.388 94.54C256.529 94.54 255.792 94.82 255.176 95.38C254.56 95.9213 254.205 96.7147 254.112 97.76H260.44ZM273.085 107.28C272.17 107.28 271.265 107.215 270.369 107.084C269.491 106.953 268.605 106.72 267.709 106.384V102.604C268.511 102.959 269.417 103.267 270.425 103.528C271.433 103.771 272.478 103.892 273.561 103.892C274.27 103.892 274.83 103.808 275.241 103.64C275.651 103.453 275.857 103.155 275.857 102.744C275.857 102.389 275.717 102.109 275.437 101.904C275.157 101.68 274.746 101.465 274.205 101.26C273.682 101.036 273.019 100.775 272.217 100.476C271.377 100.14 270.621 99.7947 269.949 99.44C269.295 99.0667 268.773 98.6093 268.381 98.068C268.007 97.508 267.821 96.7893 267.821 95.912C267.821 94.8667 268.082 94.0173 268.605 93.364C269.146 92.692 269.883 92.2067 270.817 91.908C271.75 91.5907 272.833 91.432 274.065 91.432C275.054 91.432 276.053 91.5347 277.061 91.74C278.069 91.9267 279.049 92.2253 280.001 92.636L278.741 95.744C277.882 95.4267 277.061 95.184 276.277 95.016C275.511 94.848 274.727 94.764 273.925 94.764C273.309 94.764 272.823 94.8387 272.469 94.988C272.133 95.1373 271.965 95.3987 271.965 95.772C271.965 96.108 272.095 96.388 272.357 96.612C272.618 96.8173 273.001 97.0133 273.505 97.2C274.009 97.368 274.615 97.5827 275.325 97.844C276.165 98.1427 276.939 98.4787 277.649 98.852C278.358 99.2253 278.927 99.72 279.357 100.336C279.805 100.933 280.029 101.745 280.029 102.772C280.029 103.817 279.767 104.676 279.245 105.348C278.722 106.001 277.947 106.487 276.921 106.804C275.894 107.121 274.615 107.28 273.085 107.28ZM291.75 107.28C290.032 107.28 288.614 106.991 287.494 106.412C286.392 105.833 285.571 104.975 285.03 103.836C284.488 102.679 284.218 101.251 284.218 99.552C284.218 97.7787 284.498 96.2947 285.058 95.1C285.636 93.8867 286.495 92.972 287.634 92.356C288.772 91.74 290.191 91.432 291.89 91.432C292.655 91.432 293.467 91.5067 294.326 91.656C295.184 91.7867 296.015 92.0293 296.818 92.384L295.642 95.604C294.895 95.3053 294.214 95.1093 293.598 95.016C292.982 94.9227 292.487 94.876 292.114 94.876C291.274 94.876 290.574 95.044 290.014 95.38C289.454 95.716 289.034 96.22 288.754 96.892C288.474 97.564 288.334 98.404 288.334 99.412C288.334 100.439 288.483 101.279 288.782 101.932C289.08 102.585 289.51 103.071 290.07 103.388C290.648 103.687 291.348 103.836 292.17 103.836C292.748 103.836 293.383 103.752 294.074 103.584C294.783 103.397 295.539 103.061 296.342 102.576V106.216C295.539 106.627 294.774 106.907 294.046 107.056C293.318 107.205 292.552 107.28 291.75 107.28ZM300.195 107V104.48L304.171 103.64V95.072L300.951 94.596V91.712H307.251L307.839 94.288H308.035C308.52 93.4293 309.136 92.7387 309.883 92.216C310.63 91.6933 311.572 91.432 312.711 91.432C313.028 91.432 313.43 91.46 313.915 91.516C314.4 91.572 314.886 91.7027 315.371 91.908L314.279 95.688C314.018 95.5947 313.691 95.5107 313.299 95.436C312.907 95.3613 312.496 95.324 312.067 95.324C311.208 95.324 310.49 95.52 309.911 95.912C309.351 96.2853 308.931 96.7987 308.651 97.452C308.371 98.1053 308.231 98.8427 308.231 99.664V103.64L312.235 104.48V107H300.195ZM317.516 107V104.48L322.612 103.64V95.072L318.272 94.596V91.712H326.672V103.64L331.236 104.48V107H317.516ZM324.656 89.976C323.853 89.976 323.247 89.78 322.836 89.388C322.425 88.996 322.22 88.408 322.22 87.624C322.22 86.8587 322.425 86.28 322.836 85.888C323.247 85.4773 323.872 85.272 324.712 85.272C325.533 85.272 326.149 85.468 326.56 85.86C326.971 86.252 327.176 86.8307 327.176 87.596C327.176 88.3613 326.961 88.9493 326.532 89.36C326.121 89.7707 325.496 89.976 324.656 89.976ZM334.165 113.72V91.712H337.245L337.945 93.7H338.141C338.477 93.196 338.878 92.776 339.345 92.44C339.812 92.104 340.325 91.852 340.885 91.684C341.445 91.516 342.033 91.432 342.649 91.432C343.638 91.432 344.488 91.6373 345.197 92.048C345.906 92.44 346.485 93 346.933 93.728C347.4 94.456 347.745 95.296 347.969 96.248C348.193 97.2 348.305 98.2267 348.305 99.328C348.305 100.989 348.062 102.417 347.577 103.612C347.11 104.807 346.448 105.721 345.589 106.356C344.73 106.972 343.704 107.28 342.509 107.28C341.949 107.28 341.398 107.205 340.857 107.056C340.316 106.907 339.812 106.692 339.345 106.412C338.897 106.113 338.496 105.749 338.141 105.32H337.945C338.038 105.955 338.094 106.459 338.113 106.832C338.132 107.205 338.141 107.439 338.141 107.532V113.72H334.165ZM341.249 103.92C342.238 103.92 342.957 103.556 343.405 102.828C343.872 102.081 344.105 100.896 344.105 99.272C344.105 97.816 343.872 96.7053 343.405 95.94C342.957 95.1747 342.229 94.792 341.221 94.792C340.25 94.792 339.494 95.1467 338.953 95.856C338.412 96.5653 338.141 97.564 338.141 98.852V99.3C338.141 100.887 338.412 102.053 338.953 102.8C339.494 103.547 340.26 103.92 341.249 103.92ZM360.362 107.28C359.055 107.28 357.954 107.093 357.058 106.72C356.181 106.328 355.518 105.731 355.07 104.928C354.622 104.107 354.398 103.043 354.398 101.736V95.072H350.898V92.552L354.706 91.712L355.378 87.904H358.458V91.712H364.198V95.072H358.458V101.316C358.458 102.044 358.579 102.595 358.822 102.968C359.065 103.323 359.391 103.565 359.802 103.696C360.213 103.827 360.661 103.892 361.146 103.892C361.594 103.892 362.051 103.855 362.518 103.78C362.985 103.705 363.591 103.603 364.338 103.472V106.664C363.647 106.888 362.966 107.047 362.294 107.14C361.641 107.233 360.997 107.28 360.362 107.28ZM367.883 107V104.48L372.979 103.64V95.072L368.639 94.596V91.712H377.039V103.64L381.603 104.48V107H367.883ZM375.023 89.976C374.22 89.976 373.614 89.78 373.203 89.388C372.792 88.996 372.587 88.408 372.587 87.624C372.587 86.8587 372.792 86.28 373.203 85.888C373.614 85.4773 374.239 85.272 375.079 85.272C375.9 85.272 376.516 85.468 376.927 85.86C377.338 86.252 377.543 86.8307 377.543 87.596C377.543 88.3613 377.328 88.9493 376.899 89.36C376.488 89.7707 375.863 89.976 375.023 89.976ZM391.392 107.28C390.254 107.28 389.227 107.093 388.312 106.72C387.416 106.347 386.651 105.815 386.016 105.124C385.4 104.433 384.924 103.612 384.588 102.66C384.271 101.689 384.112 100.607 384.112 99.412C384.112 97.788 384.402 96.3787 384.98 95.184C385.578 93.9893 386.427 93.0653 387.528 92.412C388.63 91.7587 389.936 91.432 391.448 91.432C392.923 91.432 394.202 91.7493 395.284 92.384C396.367 93 397.198 93.9053 397.776 95.1C398.374 96.276 398.672 97.6947 398.672 99.356C398.672 100.532 398.514 101.605 398.196 102.576C397.879 103.547 397.412 104.387 396.796 105.096C396.18 105.787 395.415 106.328 394.5 106.72C393.604 107.093 392.568 107.28 391.392 107.28ZM391.448 104.004C392.158 104.004 392.736 103.817 393.184 103.444C393.651 103.071 393.996 102.539 394.22 101.848C394.444 101.139 394.556 100.308 394.556 99.356C394.556 98.4227 394.444 97.6107 394.22 96.92C394.015 96.2107 393.679 95.6693 393.212 95.296C392.764 94.904 392.176 94.708 391.448 94.708C390.366 94.708 389.554 95.128 389.012 95.968C388.49 96.7893 388.228 97.9187 388.228 99.356C388.228 100.308 388.34 101.129 388.564 101.82C388.807 102.511 389.171 103.052 389.656 103.444C390.142 103.817 390.739 104.004 391.448 104.004ZM401.321 107V91.712H404.401L405.073 93.672H405.297C405.615 93.168 405.997 92.7573 406.445 92.44C406.893 92.104 407.407 91.852 407.985 91.684C408.583 91.516 409.227 91.432 409.917 91.432C411.635 91.432 412.941 91.9173 413.837 92.888C414.733 93.84 415.181 95.2213 415.181 97.032V107H411.121V98.068C411.121 96.948 410.897 96.1267 410.449 95.604C410.001 95.0627 409.357 94.792 408.517 94.792C407.416 94.792 406.613 95.24 406.109 96.136C405.624 97.032 405.381 98.2547 405.381 99.804V107H401.321Z" fill="black"/>
<path d="M0 16C0 7.16344 7.16344 0 16 0H50V138H16C7.16344 138 0 130.837 0 122V16Z" fill="#0066B3"/>
<path d="M619 122C619 130.837 611.837 138 603 138H569V0H603C611.837 0 619 7.16344 619 16V122Z" fill="#0066B3"/>
<circle cx="545" cy="28" r="10" fill="#0066B3"/>
<circle cx="511" cy="28" r="10" fill="#404040"/>
<circle cx="477" cy="28" r="10" fill="black"/>
</svg>
