<svg width="619" height="138" viewBox="0 0 619 138" fill="none" xmlns="http://www.w3.org/2000/svg">
<path d="M0 16C0 7.16344 7.16344 0 16 0H603C611.837 0 619 7.16344 619 16V122C619 130.837 611.837 138 603 138H16C7.16345 138 0 130.837 0 122V16Z" fill="white"/>
<path d="M66.04 35.36V32.552L72.712 29.456L66.04 26.168V23.336L76.36 28.664V30.344L66.04 35.36ZM99.3813 38.24C98.5173 38.24 97.6613 38.16 96.8133 38C95.9813 37.824 95.1973 37.56 94.4613 37.208V34.04C95.3573 34.488 96.2213 34.824 97.0533 35.048C97.8853 35.256 98.6933 35.36 99.4773 35.36C100.037 35.36 100.525 35.304 100.941 35.192C101.373 35.064 101.709 34.864 101.949 34.592C102.189 34.304 102.309 33.912 102.309 33.416C102.309 32.904 102.165 32.504 101.877 32.216C101.605 31.928 101.205 31.656 100.677 31.4C100.149 31.128 99.5173 30.8 98.7812 30.416C98.0453 30.016 97.3733 29.584 96.7653 29.12C96.1573 28.656 95.6773 28.112 95.3253 27.488C94.9733 26.848 94.7973 26.08 94.7973 25.184C94.7973 24.16 95.0293 23.312 95.4933 22.64C95.9733 21.968 96.6293 21.464 97.4613 21.128C98.3093 20.792 99.2933 20.624 100.413 20.624C101.085 20.624 101.885 20.704 102.813 20.864C103.741 21.008 104.653 21.296 105.549 21.728L104.445 24.44C103.661 24.104 102.949 23.864 102.309 23.72C101.669 23.576 101.101 23.504 100.605 23.504C100.093 23.504 99.6693 23.576 99.3333 23.72C98.9973 23.864 98.7493 24.072 98.5893 24.344C98.4293 24.616 98.3493 24.952 98.3493 25.352C98.3493 25.816 98.4613 26.192 98.6853 26.48C98.9093 26.768 99.2453 27.032 99.6933 27.272C100.141 27.496 100.709 27.784 101.397 28.136C102.341 28.6 103.141 29.056 103.797 29.504C104.469 29.936 104.981 30.44 105.333 31.016C105.685 31.592 105.861 32.328 105.861 33.224C105.861 34.056 105.701 34.784 105.381 35.408C105.077 36.032 104.637 36.56 104.061 36.992C103.501 37.408 102.821 37.72 102.021 37.928C101.237 38.136 100.357 38.24 99.3813 38.24ZM115.308 38.24C113.836 38.24 112.62 37.992 111.66 37.496C110.716 37 110.012 36.264 109.548 35.288C109.084 34.296 108.852 33.072 108.852 31.616C108.852 30.096 109.092 28.824 109.572 27.8C110.068 26.76 110.804 25.976 111.78 25.448C112.756 24.92 113.972 24.656 115.428 24.656C116.084 24.656 116.78 24.72 117.516 24.848C118.252 24.96 118.964 25.168 119.652 25.472L118.644 28.232C118.004 27.976 117.42 27.808 116.892 27.728C116.364 27.648 115.94 27.608 115.62 27.608C114.9 27.608 114.3 27.752 113.82 28.04C113.34 28.328 112.98 28.76 112.74 29.336C112.5 29.912 112.38 30.632 112.38 31.496C112.38 32.376 112.508 33.096 112.764 33.656C113.02 34.216 113.388 34.632 113.868 34.904C114.364 35.16 114.964 35.288 115.668 35.288C116.164 35.288 116.708 35.216 117.3 35.072C117.908 34.912 118.556 34.624 119.244 34.208V37.328C118.556 37.68 117.9 37.92 117.276 38.048C116.652 38.176 115.996 38.24 115.308 38.24ZM122.547 38V35.84L125.955 35.12V27.776L123.195 27.368V24.896H128.595L129.099 27.104H129.267C129.683 26.368 130.211 25.776 130.851 25.328C131.491 24.88 132.299 24.656 133.275 24.656C133.547 24.656 133.891 24.68 134.307 24.728C134.723 24.776 135.139 24.888 135.555 25.064L134.619 28.304C134.395 28.224 134.115 28.152 133.779 28.088C133.443 28.024 133.091 27.992 132.723 27.992C131.987 27.992 131.371 28.16 130.875 28.496C130.395 28.816 130.035 29.256 129.795 29.816C129.555 30.376 129.435 31.008 129.435 31.712V35.12L132.867 35.84V38H122.547ZM141.305 38.24C139.929 38.24 138.889 37.88 138.185 37.16C137.497 36.424 137.153 35.44 137.153 34.208C137.153 33.232 137.361 32.432 137.777 31.808C138.193 31.184 138.809 30.72 139.625 30.416C140.441 30.112 141.433 29.944 142.601 29.912L145.481 29.84V29.264C145.481 28.656 145.265 28.2 144.833 27.896C144.401 27.592 143.745 27.44 142.865 27.44C142.305 27.44 141.705 27.504 141.065 27.632C140.441 27.76 139.777 27.96 139.073 28.232L137.945 25.808C138.697 25.424 139.489 25.136 140.321 24.944C141.169 24.752 142.057 24.656 142.985 24.656C144.841 24.656 146.273 25.04 147.281 25.808C148.289 26.56 148.793 27.712 148.793 29.264V38H146.153L145.601 36.344H145.505C145.105 36.808 144.681 37.184 144.233 37.472C143.785 37.744 143.313 37.936 142.817 38.048C142.337 38.176 141.833 38.24 141.305 38.24ZM142.529 35.504C143.073 35.504 143.569 35.408 144.017 35.216C144.465 35.008 144.817 34.72 145.073 34.352C145.345 33.968 145.481 33.52 145.481 33.008V31.928L143.489 31.976C142.849 31.992 142.305 32.072 141.857 32.216C141.425 32.36 141.097 32.568 140.873 32.84C140.649 33.112 140.537 33.464 140.537 33.896C140.537 34.472 140.729 34.888 141.113 35.144C141.497 35.384 141.969 35.504 142.529 35.504ZM151.664 43.76V24.896H154.304L154.904 26.6H155.072C155.36 26.168 155.704 25.808 156.104 25.52C156.504 25.232 156.944 25.016 157.424 24.872C157.904 24.728 158.408 24.656 158.936 24.656C159.784 24.656 160.512 24.832 161.12 25.184C161.728 25.52 162.224 26 162.608 26.624C163.008 27.248 163.304 27.968 163.496 28.784C163.688 29.6 163.784 30.48 163.784 31.424C163.784 32.848 163.576 34.072 163.16 35.096C162.76 36.12 162.192 36.904 161.456 37.448C160.72 37.976 159.84 38.24 158.816 38.24C158.336 38.24 157.864 38.176 157.4 38.048C156.936 37.92 156.504 37.736 156.104 37.496C155.72 37.24 155.376 36.928 155.072 36.56H154.904C154.984 37.104 155.032 37.536 155.048 37.856C155.064 38.176 155.072 38.376 155.072 38.456V43.76H151.664ZM157.736 35.36C158.584 35.36 159.2 35.048 159.584 34.424C159.984 33.784 160.184 32.768 160.184 31.376C160.184 30.128 159.984 29.176 159.584 28.52C159.2 27.864 158.576 27.536 157.712 27.536C156.88 27.536 156.232 27.84 155.768 28.448C155.304 29.056 155.072 29.912 155.072 31.016V31.4C155.072 32.76 155.304 33.76 155.768 34.4C156.232 35.04 156.888 35.36 157.736 35.36ZM181.045 38V20.864H186.397C188.285 20.864 189.725 21.2 190.717 21.872C191.709 22.528 192.205 23.592 192.205 25.064C192.205 26.104 191.973 26.96 191.509 27.632C191.045 28.304 190.421 28.728 189.637 28.904V29.024C190.229 29.168 190.741 29.4 191.173 29.72C191.605 30.04 191.941 30.464 192.181 30.992C192.437 31.52 192.565 32.184 192.565 32.984C192.565 34.024 192.341 34.92 191.893 35.672C191.461 36.424 190.829 37 189.997 37.4C189.165 37.8 188.157 38 186.973 38H181.045ZM186.637 35.144C187.501 35.144 188.101 34.936 188.437 34.52C188.773 34.104 188.941 33.528 188.941 32.792C188.941 32.296 188.869 31.888 188.725 31.568C188.581 31.232 188.333 30.984 187.981 30.824C187.629 30.648 187.141 30.56 186.517 30.56H184.285V35.144H186.637ZM186.373 27.608C187.221 27.608 187.813 27.456 188.149 27.152C188.501 26.832 188.677 26.336 188.677 25.664C188.677 24.976 188.493 24.48 188.125 24.176C187.757 23.872 187.133 23.72 186.253 23.72H184.285V27.608H186.373ZM199.132 38.24C197.74 38.24 196.652 37.832 195.868 37.016C195.1 36.184 194.716 34.992 194.716 33.44V24.896H198.196V32.552C198.196 33.432 198.348 34.12 198.652 34.616C198.956 35.112 199.508 35.36 200.308 35.36C201.076 35.36 201.66 35.184 202.06 34.832C202.46 34.48 202.732 33.984 202.876 33.344C203.036 32.688 203.116 31.928 203.116 31.064V24.896H206.596V38H203.956L203.38 36.32H203.188C202.932 36.72 202.596 37.064 202.18 37.352C201.78 37.64 201.316 37.856 200.788 38C200.276 38.16 199.724 38.24 199.132 38.24ZM214.434 38.24C213.65 38.24 212.874 38.184 212.106 38.072C211.354 37.96 210.594 37.76 209.826 37.472V34.232C210.514 34.536 211.29 34.8 212.154 35.024C213.018 35.232 213.914 35.336 214.842 35.336C215.45 35.336 215.93 35.264 216.282 35.12C216.634 34.96 216.81 34.704 216.81 34.352C216.81 34.048 216.69 33.808 216.45 33.632C216.21 33.44 215.858 33.256 215.394 33.08C214.946 32.888 214.378 32.664 213.69 32.408C212.97 32.12 212.322 31.824 211.746 31.52C211.186 31.2 210.738 30.808 210.402 30.344C210.082 29.864 209.922 29.248 209.922 28.496C209.922 27.6 210.146 26.872 210.594 26.312C211.058 25.736 211.69 25.32 212.49 25.064C213.29 24.792 214.218 24.656 215.274 24.656C216.122 24.656 216.978 24.744 217.842 24.92C218.706 25.08 219.546 25.336 220.362 25.688L219.282 28.352C218.546 28.08 217.842 27.872 217.17 27.728C216.514 27.584 215.842 27.512 215.154 27.512C214.626 27.512 214.21 27.576 213.906 27.704C213.618 27.832 213.474 28.056 213.474 28.376C213.474 28.664 213.586 28.904 213.81 29.096C214.034 29.272 214.362 29.44 214.794 29.6C215.226 29.744 215.746 29.928 216.354 30.152C217.074 30.408 217.738 30.696 218.346 31.016C218.954 31.336 219.442 31.76 219.81 32.288C220.194 32.8 220.386 33.496 220.386 34.376C220.386 35.272 220.162 36.008 219.714 36.584C219.266 37.144 218.602 37.56 217.722 37.832C216.842 38.104 215.746 38.24 214.434 38.24ZM231.681 38.24C230.561 38.24 229.617 38.08 228.849 37.76C228.097 37.424 227.529 36.912 227.145 36.224C226.761 35.52 226.569 34.608 226.569 33.488V27.776H223.569V25.616L226.833 24.896L227.409 21.632H230.049V24.896H234.969V27.776H230.049V33.128C230.049 33.752 230.153 34.224 230.361 34.544C230.569 34.848 230.849 35.056 231.201 35.168C231.553 35.28 231.937 35.336 232.353 35.336C232.737 35.336 233.129 35.304 233.529 35.24C233.929 35.176 234.449 35.088 235.089 34.976V37.712C234.497 37.904 233.913 38.04 233.337 38.12C232.777 38.2 232.225 38.24 231.681 38.24ZM245.112 38.24C243.576 38.24 242.272 37.976 241.2 37.448C240.128 36.92 239.304 36.144 238.728 35.12C238.168 34.096 237.888 32.848 237.888 31.376C237.888 30.016 238.128 28.832 238.608 27.824C239.088 26.816 239.792 26.04 240.72 25.496C241.648 24.936 242.768 24.656 244.08 24.656C245.312 24.656 246.36 24.904 247.224 25.4C248.088 25.88 248.744 26.576 249.192 27.488C249.656 28.384 249.888 29.464 249.888 30.728V32.456H241.272C241.304 33.096 241.496 33.64 241.848 34.088C242.216 34.52 242.704 34.848 243.312 35.072C243.92 35.28 244.584 35.384 245.304 35.384C245.928 35.384 246.584 35.312 247.272 35.168C247.976 35.008 248.72 34.784 249.504 34.496V37.304C248.8 37.656 248.072 37.896 247.32 38.024C246.584 38.168 245.848 38.24 245.112 38.24ZM246.768 30.08C246.768 29.504 246.648 29.016 246.408 28.616C246.184 28.2 245.88 27.88 245.496 27.656C245.112 27.432 244.664 27.32 244.152 27.32C243.416 27.32 242.784 27.56 242.256 28.04C241.728 28.504 241.424 29.184 241.344 30.08H246.768ZM252.062 38V35.84L255.47 35.12V27.776L252.71 27.368V24.896H258.11L258.614 27.104H258.782C259.198 26.368 259.726 25.776 260.366 25.328C261.006 24.88 261.814 24.656 262.79 24.656C263.062 24.656 263.406 24.68 263.822 24.728C264.238 24.776 264.654 24.888 265.07 25.064L264.134 28.304C263.91 28.224 263.63 28.152 263.294 28.088C262.958 28.024 262.606 27.992 262.238 27.992C261.502 27.992 260.886 28.16 260.39 28.496C259.91 28.816 259.55 29.256 259.31 29.816C259.07 30.376 258.95 31.008 258.95 31.712V35.12L262.382 35.84V38H252.062ZM271.997 38.24C271.213 38.24 270.437 38.184 269.669 38.072C268.917 37.96 268.157 37.76 267.389 37.472V34.232C268.077 34.536 268.853 34.8 269.717 35.024C270.581 35.232 271.477 35.336 272.405 35.336C273.013 35.336 273.493 35.264 273.845 35.12C274.197 34.96 274.373 34.704 274.373 34.352C274.373 34.048 274.253 33.808 274.013 33.632C273.773 33.44 273.421 33.256 272.957 33.08C272.509 32.888 271.941 32.664 271.253 32.408C270.533 32.12 269.885 31.824 269.309 31.52C268.749 31.2 268.301 30.808 267.965 30.344C267.645 29.864 267.485 29.248 267.485 28.496C267.485 27.6 267.709 26.872 268.157 26.312C268.621 25.736 269.253 25.32 270.053 25.064C270.853 24.792 271.781 24.656 272.837 24.656C273.685 24.656 274.541 24.744 275.405 24.92C276.269 25.08 277.109 25.336 277.925 25.688L276.845 28.352C276.109 28.08 275.405 27.872 274.733 27.728C274.077 27.584 273.405 27.512 272.717 27.512C272.189 27.512 271.773 27.576 271.469 27.704C271.181 27.832 271.037 28.056 271.037 28.376C271.037 28.664 271.149 28.904 271.373 29.096C271.597 29.272 271.925 29.44 272.357 29.6C272.789 29.744 273.309 29.928 273.917 30.152C274.637 30.408 275.301 30.696 275.909 31.016C276.517 31.336 277.005 31.76 277.373 32.288C277.757 32.8 277.949 33.496 277.949 34.376C277.949 35.272 277.725 36.008 277.277 36.584C276.829 37.144 276.165 37.56 275.285 37.832C274.405 38.104 273.309 38.24 271.997 38.24Z" fill="black" fill-opacity="0.5"/>
<path d="M66.38 103.92V100.644L74.164 97.032L66.38 93.196V89.892L78.42 96.108V98.068L66.38 103.92ZM99.3421 107L97.8581 87.008H101.386C101.591 89.024 101.75 90.7133 101.862 92.076C101.974 93.42 102.049 94.54 102.086 95.436C102.142 96.332 102.17 97.0973 102.17 97.732C102.189 98.348 102.198 98.936 102.198 99.496C102.198 99.776 102.198 100.056 102.198 100.336C102.198 100.616 102.198 100.896 102.198 101.176C102.198 101.456 102.189 101.736 102.17 102.016C102.17 102.296 102.17 102.576 102.17 102.856C102.17 103.117 102.161 103.369 102.142 103.612H102.338C102.394 103.108 102.459 102.585 102.534 102.044C102.609 101.484 102.683 100.943 102.758 100.42C102.833 99.8973 102.898 99.4307 102.954 99.02C103.01 98.5907 103.057 98.264 103.094 98.04L104.074 91.712H107.938L108.89 98.04C108.946 98.4507 109.011 98.8893 109.086 99.356C109.179 99.8227 109.263 100.299 109.338 100.784C109.413 101.269 109.487 101.755 109.562 102.24C109.655 102.725 109.73 103.192 109.786 103.64H109.982C109.963 103.285 109.945 102.921 109.926 102.548C109.926 102.175 109.917 101.801 109.898 101.428C109.879 101.036 109.861 100.663 109.842 100.308C109.842 99.9533 109.842 99.6267 109.842 99.328C109.842 99.0107 109.842 98.7493 109.842 98.544C109.842 98.2453 109.842 97.9093 109.842 97.536C109.861 97.144 109.889 96.6773 109.926 96.136C109.963 95.576 110.01 94.8947 110.066 94.092C110.122 93.2893 110.187 92.3093 110.262 91.152C110.355 89.9947 110.458 88.6133 110.57 87.008H114.098L112.698 107H107.658L106.65 100.168C106.594 99.7947 106.529 99.3747 106.454 98.908C106.398 98.4413 106.333 97.9467 106.258 97.424C106.202 96.9013 106.146 96.388 106.09 95.884H105.922C105.866 96.388 105.801 96.9013 105.726 97.424C105.67 97.9467 105.605 98.4507 105.53 98.936C105.455 99.4027 105.39 99.8133 105.334 100.168L104.326 107H99.3421ZM116.047 107V104.48L121.143 103.64V95.072L116.803 94.596V91.712H125.203V103.64L129.767 104.48V107H116.047ZM123.187 89.976C122.385 89.976 121.778 89.78 121.367 89.388C120.957 88.996 120.751 88.408 120.751 87.624C120.751 86.8587 120.957 86.28 121.367 85.888C121.778 85.4773 122.403 85.272 123.243 85.272C124.065 85.272 124.681 85.468 125.091 85.86C125.502 86.252 125.707 86.8307 125.707 87.596C125.707 88.3613 125.493 88.9493 125.063 89.36C124.653 89.7707 124.027 89.976 123.187 89.976ZM132.304 107V104.48L136.28 103.64V95.072L133.06 94.596V91.712H139.36L139.948 94.288H140.144C140.63 93.4293 141.246 92.7387 141.992 92.216C142.739 91.6933 143.682 91.432 144.82 91.432C145.138 91.432 145.539 91.46 146.024 91.516C146.51 91.572 146.995 91.7027 147.48 91.908L146.388 95.688C146.127 95.5947 145.8 95.5107 145.408 95.436C145.016 95.3613 144.606 95.324 144.176 95.324C143.318 95.324 142.599 95.52 142.02 95.912C141.46 96.2853 141.04 96.7987 140.76 97.452C140.48 98.1053 140.34 98.8427 140.34 99.664V103.64L144.344 104.48V107H132.304ZM157.773 107.28C155.981 107.28 154.46 106.972 153.209 106.356C151.959 105.74 150.997 104.835 150.325 103.64C149.672 102.445 149.345 100.989 149.345 99.272C149.345 97.6853 149.625 96.304 150.185 95.128C150.745 93.952 151.567 93.0467 152.649 92.412C153.732 91.7587 155.039 91.432 156.569 91.432C158.007 91.432 159.229 91.7213 160.237 92.3C161.245 92.86 162.011 93.672 162.533 94.736C163.075 95.7813 163.345 97.0413 163.345 98.516V100.532H153.293C153.331 101.279 153.555 101.913 153.965 102.436C154.395 102.94 154.964 103.323 155.673 103.584C156.383 103.827 157.157 103.948 157.997 103.948C158.725 103.948 159.491 103.864 160.293 103.696C161.115 103.509 161.983 103.248 162.897 102.912V106.188C162.076 106.599 161.227 106.879 160.349 107.028C159.491 107.196 158.632 107.28 157.773 107.28ZM159.705 97.76C159.705 97.088 159.565 96.5187 159.285 96.052C159.024 95.5667 158.669 95.1933 158.221 94.932C157.773 94.6707 157.251 94.54 156.653 94.54C155.795 94.54 155.057 94.82 154.441 95.38C153.825 95.9213 153.471 96.7147 153.377 97.76H159.705ZM183.763 107V87.008H196.363V90.508H187.683V95.716H195.943V99.216H187.683V107H183.763ZM199.461 107V104.48L203.437 103.64V95.072L200.217 94.596V91.712H206.517L207.105 94.288H207.301C207.786 93.4293 208.402 92.7387 209.149 92.216C209.895 91.6933 210.838 91.432 211.977 91.432C212.294 91.432 212.695 91.46 213.181 91.516C213.666 91.572 214.151 91.7027 214.637 91.908L213.545 95.688C213.283 95.5947 212.957 95.5107 212.565 95.436C212.173 95.3613 211.762 95.324 211.333 95.324C210.474 95.324 209.755 95.52 209.177 95.912C208.617 96.2853 208.197 96.7987 207.917 97.452C207.637 98.1053 207.497 98.8427 207.497 99.664V103.64L211.501 104.48V107H199.461ZM221.346 107.28C219.74 107.28 218.527 106.86 217.706 106.02C216.903 105.161 216.502 104.013 216.502 102.576C216.502 101.437 216.744 100.504 217.23 99.776C217.715 99.048 218.434 98.5067 219.386 98.152C220.338 97.7973 221.495 97.6013 222.858 97.564L226.218 97.48V96.808C226.218 96.0987 225.966 95.5667 225.462 95.212C224.958 94.8573 224.192 94.68 223.166 94.68C222.512 94.68 221.812 94.7547 221.066 94.904C220.338 95.0533 219.563 95.2867 218.742 95.604L217.426 92.776C218.303 92.328 219.227 91.992 220.198 91.768C221.187 91.544 222.223 91.432 223.306 91.432C225.471 91.432 227.142 91.88 228.318 92.776C229.494 93.6533 230.082 94.9973 230.082 96.808V107H227.002L226.358 105.068H226.246C225.779 105.609 225.284 106.048 224.762 106.384C224.239 106.701 223.688 106.925 223.11 107.056C222.55 107.205 221.962 107.28 221.346 107.28ZM222.774 104.088C223.408 104.088 223.987 103.976 224.51 103.752C225.032 103.509 225.443 103.173 225.742 102.744C226.059 102.296 226.218 101.773 226.218 101.176V99.916L223.894 99.972C223.147 99.9907 222.512 100.084 221.99 100.252C221.486 100.42 221.103 100.663 220.842 100.98C220.58 101.297 220.45 101.708 220.45 102.212C220.45 102.884 220.674 103.369 221.122 103.668C221.57 103.948 222.12 104.088 222.774 104.088ZM232.731 107V91.712H235.475L235.923 93.616H236.147C236.333 93.112 236.548 92.7013 236.791 92.384C237.052 92.0667 237.36 91.8333 237.715 91.684C238.069 91.516 238.489 91.432 238.975 91.432C239.796 91.432 240.421 91.6467 240.851 92.076C241.28 92.5053 241.569 93.1307 241.719 93.952H241.859C242.195 93.1307 242.596 92.5053 243.063 92.076C243.529 91.6467 244.164 91.432 244.967 91.432C245.769 91.432 246.376 91.6467 246.787 92.076C247.197 92.4867 247.477 93.112 247.627 93.952C247.776 94.792 247.851 95.828 247.851 97.06V107H244.351V96.248C244.351 95.9307 244.323 95.6693 244.267 95.464C244.211 95.24 244.108 95.072 243.959 94.96C243.828 94.848 243.623 94.792 243.343 94.792C243.025 94.792 242.773 94.8667 242.587 95.016C242.4 95.1653 242.269 95.4173 242.195 95.772C242.12 96.108 242.083 96.556 242.083 97.116V107H238.527V96.248C238.527 95.9307 238.499 95.6693 238.443 95.464C238.387 95.24 238.284 95.072 238.135 94.96C237.985 94.848 237.771 94.792 237.491 94.792C237.173 94.792 236.921 94.8667 236.735 95.016C236.548 95.1653 236.417 95.408 236.343 95.744C236.268 96.08 236.231 96.5373 236.231 97.116V107H232.731ZM258.508 107.28C256.716 107.28 255.194 106.972 253.944 106.356C252.693 105.74 251.732 104.835 251.06 103.64C250.406 102.445 250.08 100.989 250.08 99.272C250.08 97.6853 250.36 96.304 250.92 95.128C251.48 93.952 252.301 93.0467 253.384 92.412C254.466 91.7587 255.773 91.432 257.304 91.432C258.741 91.432 259.964 91.7213 260.972 92.3C261.98 92.86 262.745 93.672 263.268 94.736C263.809 95.7813 264.08 97.0413 264.08 98.516V100.532H254.028C254.065 101.279 254.289 101.913 254.7 102.436C255.129 102.94 255.698 103.323 256.408 103.584C257.117 103.827 257.892 103.948 258.732 103.948C259.46 103.948 260.225 103.864 261.028 103.696C261.849 103.509 262.717 103.248 263.632 102.912V106.188C262.81 106.599 261.961 106.879 261.084 107.028C260.225 107.196 259.366 107.28 258.508 107.28ZM260.44 97.76C260.44 97.088 260.3 96.5187 260.02 96.052C259.758 95.5667 259.404 95.1933 258.956 94.932C258.508 94.6707 257.985 94.54 257.388 94.54C256.529 94.54 255.792 94.82 255.176 95.38C254.56 95.9213 254.205 96.7147 254.112 97.76H260.44ZM273.085 107.28C272.17 107.28 271.265 107.215 270.369 107.084C269.491 106.953 268.605 106.72 267.709 106.384V102.604C268.511 102.959 269.417 103.267 270.425 103.528C271.433 103.771 272.478 103.892 273.561 103.892C274.27 103.892 274.83 103.808 275.241 103.64C275.651 103.453 275.857 103.155 275.857 102.744C275.857 102.389 275.717 102.109 275.437 101.904C275.157 101.68 274.746 101.465 274.205 101.26C273.682 101.036 273.019 100.775 272.217 100.476C271.377 100.14 270.621 99.7947 269.949 99.44C269.295 99.0667 268.773 98.6093 268.381 98.068C268.007 97.508 267.821 96.7893 267.821 95.912C267.821 94.8667 268.082 94.0173 268.605 93.364C269.146 92.692 269.883 92.2067 270.817 91.908C271.75 91.5907 272.833 91.432 274.065 91.432C275.054 91.432 276.053 91.5347 277.061 91.74C278.069 91.9267 279.049 92.2253 280.001 92.636L278.741 95.744C277.882 95.4267 277.061 95.184 276.277 95.016C275.511 94.848 274.727 94.764 273.925 94.764C273.309 94.764 272.823 94.8387 272.469 94.988C272.133 95.1373 271.965 95.3987 271.965 95.772C271.965 96.108 272.095 96.388 272.357 96.612C272.618 96.8173 273.001 97.0133 273.505 97.2C274.009 97.368 274.615 97.5827 275.325 97.844C276.165 98.1427 276.939 98.4787 277.649 98.852C278.358 99.2253 278.927 99.72 279.357 100.336C279.805 100.933 280.029 101.745 280.029 102.772C280.029 103.817 279.767 104.676 279.245 105.348C278.722 106.001 277.947 106.487 276.921 106.804C275.894 107.121 274.615 107.28 273.085 107.28Z" fill="black"/>
<path d="M0 16C0 7.16344 7.16344 0 16 0H50V138H16C7.16344 138 0 130.837 0 122V16Z" fill="#0066B3"/>
<path d="M619 122C619 130.837 611.837 138 603 138H569V0H603C611.837 0 619 7.16344 619 16V122Z" fill="#0066B3"/>
<circle cx="545" cy="28" r="10" fill="#D9D9D9"/>
<circle cx="511" cy="28" r="10" fill="#404040"/>
<circle cx="477" cy="28" r="10" fill="black"/>
</svg>
